<?xml version="1.0" encoding="utf-8"?>
<!-- Generator: Adobe Illustrator 15.0.2, SVG Export Plug-In . SVG Version: 6.00 Build 0)  -->
<!DOCTYPE svg PUBLIC "-//W3C//DTD SVG 1.1//EN" "http://www.w3.org/Graphics/SVG/1.1/DTD/svg11.dtd">
<svg version="1.1" id="Layer_1" xmlns="http://www.w3.org/2000/svg" xmlns:xlink="http://www.w3.org/1999/xlink" x="0px" y="0px"
	 width="391px" height="279px" viewBox="0 0 391 279" enable-background="new 0 0 391 279" xml:space="preserve">
<g>
	<g>
		<defs>
			<rect id="SVGID_1_" x="-627.127" y="-416.256" width="1599.998" height="1200"/>
		</defs>
		<clipPath id="SVGID_2_">
			<use xlink:href="#SVGID_1_"  overflow="visible"/>
		</clipPath>
		<path clip-path="url(#SVGID_2_)" fill="#F37A7C" d="M81.243,98.254h109.541c0,0-3.95,23.277-4.653,24.254
			c-0.704,0.976-28.443,8.586-53.174,6.018c-24.732-2.567-55.791-2.669-55.791-2.669"/>
	</g>
	<g>
		<defs>
			<rect id="SVGID_3_" x="-627.127" y="-416.256" width="1599.998" height="1200"/>
		</defs>
		<clipPath id="SVGID_4_">
			<use xlink:href="#SVGID_3_"  overflow="visible"/>
		</clipPath>
		<path clip-path="url(#SVGID_4_)" fill="#BFB5B0" d="M294.101,258.087c0,7.956-60.644,14.406-135.451,14.406
			s-135.451-6.45-135.451-14.406s60.644-14.405,135.451-14.405C233.458,243.682,294.101,250.131,294.101,258.087"/>
	</g>
	<g>
		<defs>
			<rect id="SVGID_5_" x="-627.127" y="-416.256" width="1599.998" height="1200"/>
		</defs>
		<clipPath id="SVGID_6_">
			<use xlink:href="#SVGID_5_"  overflow="visible"/>
		</clipPath>
		<path clip-path="url(#SVGID_6_)" fill="#010101" d="M43.382,128.843c0,35.271,15.557,63.865,34.747,63.865V64.978
			C58.939,64.978,43.382,93.572,43.382,128.843"/>
	</g>
	<g>
		<defs>
			<rect id="SVGID_7_" x="-627.127" y="-416.256" width="1599.998" height="1200"/>
		</defs>
		<clipPath id="SVGID_8_">
			<use xlink:href="#SVGID_7_"  overflow="visible"/>
		</clipPath>
		<path clip-path="url(#SVGID_8_)" fill="#010101" d="M211.643,128.526c0-35.097,15.479-63.548,34.574-63.548h-16.119v0.286
			c-13.553,0.952-24.424,21.079-24.826,46.041h-73.538h-20.412c0.838,5.479,1.296,11.25,1.296,17.221
			c0,35.096-15.48,63.548-34.575,63.548v0.66h169.52v-0.725c-0.447,0.032-0.895,0.063-1.345,0.063
			C227.123,192.074,211.643,163.622,211.643,128.526"/>
	</g>
	<g>
		<defs>
			<rect id="SVGID_9_" x="-627.127" y="-416.256" width="1599.998" height="1200"/>
		</defs>
		<clipPath id="SVGID_10_">
			<use xlink:href="#SVGID_9_"  overflow="visible"/>
		</clipPath>
		<path clip-path="url(#SVGID_10_)" fill="#010101" d="M105.9,64.978H78.043c5.38,0,10.472,2.259,15.013,6.288
			C96.84,67.272,101.223,64.978,105.9,64.978"/>
	</g>
	<g>
		<defs>
			<rect id="SVGID_11_" x="-627.127" y="-416.256" width="1599.998" height="1200"/>
		</defs>
		<clipPath id="SVGID_12_">
			<use xlink:href="#SVGID_11_"  overflow="visible"/>
		</clipPath>
		<path clip-path="url(#SVGID_12_)" fill="#404A50" d="M247.561,64.978h-1.344c0.451,0,0.896,0.031,1.344,0.062V64.978z"/>
	</g>
	<g>
		<defs>
			<rect id="SVGID_13_" x="-627.127" y="-416.256" width="1599.998" height="1200"/>
		</defs>
		<clipPath id="SVGID_14_">
			<use xlink:href="#SVGID_13_"  overflow="visible"/>
		</clipPath>
		<path clip-path="url(#SVGID_14_)" fill="#010101" d="M112.618,128.526c0-5.971-0.458-11.742-1.295-17.221H105.9H80.067
			c0.229-17.144,5.399-32.027,12.989-40.039c-4.541-4.029-9.633-6.288-15.013-6.288v127.096
			C97.138,192.074,112.618,163.622,112.618,128.526"/>
	</g>
	<g>
		<defs>
			<rect id="SVGID_15_" x="-627.127" y="-416.256" width="1599.998" height="1200"/>
		</defs>
		<clipPath id="SVGID_16_">
			<use xlink:href="#SVGID_15_"  overflow="visible"/>
		</clipPath>
		<path clip-path="url(#SVGID_16_)" fill="#404A50" d="M280.792,128.526c0-34.269-14.76-62.187-33.231-63.486v126.971
			C266.033,190.713,280.792,162.795,280.792,128.526"/>
	</g>
	<g>
		<defs>
			<rect id="SVGID_17_" x="-627.127" y="-416.256" width="1599.998" height="1200"/>
		</defs>
		<clipPath id="SVGID_18_">
			<use xlink:href="#SVGID_17_"  overflow="visible"/>
		</clipPath>
		<path clip-path="url(#SVGID_18_)" fill="#404A50" d="M246.217,64.978c-19.095,0-34.574,28.451-34.574,63.548
			c0,35.096,15.479,63.548,34.574,63.548c0.45,0,0.897-0.031,1.344-0.062V65.04C247.115,65.009,246.667,64.978,246.217,64.978"/>
	</g>
	<g>
		<defs>
			<rect id="SVGID_19_" x="-627.127" y="-416.256" width="1599.998" height="1200"/>
		</defs>
		<clipPath id="SVGID_20_">
			<use xlink:href="#SVGID_19_"  overflow="visible"/>
		</clipPath>
		<path clip-path="url(#SVGID_20_)" fill="#010101" d="M85.567,254.003l-0.183-0.09c-5.016-2.472-7.08-8.538-4.61-13.556
			l30.994-62.941l18.347,9.034L99.12,249.393C96.651,254.409,90.583,256.473,85.567,254.003"/>
	</g>
	<g>
		<defs>
			<rect id="SVGID_21_" x="-627.127" y="-416.256" width="1599.998" height="1200"/>
		</defs>
		<clipPath id="SVGID_22_">
			<use xlink:href="#SVGID_21_"  overflow="visible"/>
		</clipPath>
		<path clip-path="url(#SVGID_22_)" fill="#010101" d="M193.204,196.757c-17.425,0-31.551,14.126-31.551,31.552
			s14.126,31.551,31.551,31.551s31.551-14.125,31.551-31.551C224.754,210.883,210.628,196.757,193.204,196.757 M193.204,247.095
			c-10.376,0-18.787-8.409-18.787-18.786c0-10.375,8.411-18.787,18.787-18.787s18.787,8.412,18.787,18.787
			C211.991,238.686,203.58,247.095,193.204,247.095"/>
	</g>
	<g>
		<defs>
			<rect id="SVGID_23_" x="-627.127" y="-416.256" width="1599.998" height="1200"/>
		</defs>
		<clipPath id="SVGID_24_">
			<use xlink:href="#SVGID_23_"  overflow="visible"/>
		</clipPath>
		<path clip-path="url(#SVGID_24_)" fill="#010101" d="M194.119,208.811h-0.205c-5.59,0-10.121-4.533-10.121-10.123v-70.162h20.449
			v70.162C204.242,204.277,199.71,208.811,194.119,208.811"/>
	</g>
	<g>
		<defs>
			<rect id="SVGID_25_" x="-627.127" y="-416.256" width="1599.998" height="1200"/>
		</defs>
		<clipPath id="SVGID_26_">
			<use xlink:href="#SVGID_25_"  overflow="visible"/>
		</clipPath>
		<path clip-path="url(#SVGID_26_)" fill="#010101" d="M57.206,121.983H32.422V47.059c0,2.386-5.871,4.32-13.114,4.32
			c-7.242,0-13.113-1.934-13.113-4.32v102.39H68.2L57.206,121.983z"/>
	</g>
	<g>
		<defs>
			<rect id="SVGID_27_" x="-627.127" y="-416.256" width="1599.998" height="1200"/>
		</defs>
		<clipPath id="SVGID_28_">
			<use xlink:href="#SVGID_27_"  overflow="visible"/>
		</clipPath>
		<path clip-path="url(#SVGID_28_)" fill="#010101" d="M212.542,182.965l1.528,9.771l-14.893,0.463c0,0-22.71-17.756-12.801-75.889
			C186.378,117.31,217.039,173.855,212.542,182.965"/>
	</g>
	<g>
		<defs>
			<rect id="SVGID_29_" x="-627.127" y="-416.256" width="1599.998" height="1200"/>
		</defs>
		<clipPath id="SVGID_30_">
			<use xlink:href="#SVGID_29_"  overflow="visible"/>
		</clipPath>
		<path clip-path="url(#SVGID_30_)" fill="#FFEAD0" d="M193.287,55.016"/>
	</g>
	<g>
		<defs>
			<rect id="SVGID_31_" x="-627.127" y="-416.256" width="1599.998" height="1200"/>
		</defs>
		<clipPath id="SVGID_32_">
			<use xlink:href="#SVGID_31_"  overflow="visible"/>
		</clipPath>
		<path clip-path="url(#SVGID_32_)" fill="#FFEAD0" d="M170.817,68.715c0.937-0.969,1.912-1.922,2.914-2.848
			C172.729,66.793,171.753,67.746,170.817,68.715"/>
	</g>
	<g>
		<defs>
			<rect id="SVGID_33_" x="-627.127" y="-416.256" width="1599.998" height="1200"/>
		</defs>
		<clipPath id="SVGID_34_">
			<use xlink:href="#SVGID_33_"  overflow="visible"/>
		</clipPath>
		<path clip-path="url(#SVGID_34_)" fill="#FFEAD0" d="M173.738,65.86c1.009-0.932,2.045-1.838,3.096-2.711
			C175.783,64.022,174.747,64.929,173.738,65.86"/>
	</g>
	<g>
		<defs>
			<rect id="SVGID_35_" x="-627.127" y="-416.256" width="1599.998" height="1200"/>
		</defs>
		<clipPath id="SVGID_36_">
			<use xlink:href="#SVGID_35_"  overflow="visible"/>
		</clipPath>
		<path clip-path="url(#SVGID_36_)" fill="#FFEAD0" d="M176.843,63.142c1.05-0.872,2.115-1.708,3.185-2.503
			C178.958,61.434,177.893,62.271,176.843,63.142"/>
	</g>
	<g>
		<defs>
			<rect id="SVGID_37_" x="-627.127" y="-416.256" width="1599.998" height="1200"/>
		</defs>
		<clipPath id="SVGID_38_">
			<use xlink:href="#SVGID_37_"  overflow="visible"/>
		</clipPath>
		<path clip-path="url(#SVGID_38_)" fill="#FFEAD0" d="M180.045,60.625c1.071-0.796,2.146-1.551,3.217-2.257
			C182.193,59.074,181.117,59.829,180.045,60.625"/>
	</g>
	<g>
		<defs>
			<rect id="SVGID_39_" x="-627.127" y="-416.256" width="1599.998" height="1200"/>
		</defs>
		<clipPath id="SVGID_40_">
			<use xlink:href="#SVGID_39_"  overflow="visible"/>
		</clipPath>
		<path clip-path="url(#SVGID_40_)" fill="#FFEAD0" d="M185.923,56.914c0.582-0.268,1.175-0.506,1.771-0.716
			C187.098,56.408,186.505,56.646,185.923,56.914"/>
	</g>
	<g>
		<defs>
			<rect id="SVGID_41_" x="-627.127" y="-416.256" width="1599.998" height="1200"/>
		</defs>
		<clipPath id="SVGID_42_">
			<use xlink:href="#SVGID_41_"  overflow="visible"/>
		</clipPath>
		<path clip-path="url(#SVGID_42_)" fill="#FFEAD0" d="M183.262,58.368c0.674-0.446,1.371-0.827,2.079-1.18
			C184.633,57.541,183.936,57.922,183.262,58.368"/>
	</g>
	<g>
		<defs>
			<rect id="SVGID_43_" x="-627.127" y="-416.256" width="1599.998" height="1200"/>
		</defs>
		<clipPath id="SVGID_44_">
			<use xlink:href="#SVGID_43_"  overflow="visible"/>
		</clipPath>
		<path clip-path="url(#SVGID_44_)" fill="#FFEAD0" d="M188.277,74.948c6.41-3.32,11.729-3.911,14.033-3.982
			c-0.373,0.502-0.73,1.017-1.093,1.526c3.72-5.244,8-10.042,12.761-14.305c-0.47,0.419-0.937,0.837-1.396,1.267
			c-2.853-1.163-5.929-2.193-9.083-2.891C200.576,63.847,194.809,69.807,188.277,74.948"/>
	</g>
	<g>
		<defs>
			<rect id="SVGID_45_" x="-627.127" y="-416.256" width="1599.998" height="1200"/>
		</defs>
		<clipPath id="SVGID_46_">
			<use xlink:href="#SVGID_45_"  overflow="visible"/>
		</clipPath>
		<path clip-path="url(#SVGID_46_)" fill="#010101" d="M183.917,76.875c1.519-1.042,2.964-1.555,4.396-2.296
			c6.529-5.143,12.311-11.241,15.189-18.016H203.5l-4.659-0.694l-0.812-0.094c-1.625-0.142-3.059-0.577-4.656-0.438
			c-0.175,0.016-0.457-0.016-0.63,0.002c-0.649,0.071-1.282,0.031-1.923,0.153c-0.154,0.029-0.305-0.015-0.457,0.019
			c-0.756,0.158-1.502,0.323-2.24,0.562c-0.145,0.047-0.283,0.089-0.43,0.141c-0.598,0.209-1.188,0.44-1.771,0.709
			c-0.196,0.088-0.391,0.173-0.584,0.27c-0.707,0.352-1.403,0.73-2.077,1.178c-1.068,0.705-2.146,1.459-3.217,2.254
			c-0.005,0.006-0.012,0.01-0.018,0.014c-1.069,0.796-2.137,1.632-3.186,2.503c-0.003,0.003-0.007,0.006-0.01,0.008
			c-1.051,0.873-2.087,1.779-3.096,2.711c-0.002,0.003-0.004,0.004-0.008,0.007c-1.001,0.926-1.976,1.879-2.913,2.849
			c-0.009,0.007-0.016,0.016-0.024,0.023C174.055,73.228,178.816,75.998,183.917,76.875"/>
	</g>
	<g>
		<defs>
			<rect id="SVGID_47_" x="-627.127" y="-416.256" width="1599.998" height="1200"/>
		</defs>
		<clipPath id="SVGID_48_">
			<use xlink:href="#SVGID_47_"  overflow="visible"/>
		</clipPath>
		<path clip-path="url(#SVGID_48_)" fill="#F37A7C" d="M188.344,74.209c-1.432,0.742-2.91,1.624-4.427,2.666
			c-3.169,2.178-6.469,5.032-9.716,8.861c0,0-5.028,7.214,17.113,4.568c0.164-0.43,0.326-0.86,0.498-1.287
			c0.15-0.37,0.312-0.735,0.467-1.102c0.332-0.786,0.673-1.564,1.025-2.337c0.201-0.44,0.404-0.878,0.611-1.313
			c0.369-0.77,0.752-1.53,1.141-2.287c0.187-0.354,0.359-0.715,0.549-1.068c0.529-0.99,1.082-1.968,1.648-2.935
			c0.275-0.474,0.562-0.937,0.848-1.401c0.349-0.568,0.701-1.133,1.062-1.691c0.318-0.494,0.638-0.989,0.968-1.478
			c0.376-0.557,0.765-1.105,1.152-1.652c0.36-0.51,0.719-1.024,1.092-1.526C200.074,70.298,194.753,70.889,188.344,74.209"/>
	</g>
	<g>
		<defs>
			<rect id="SVGID_49_" x="-627.127" y="-416.256" width="1599.998" height="1200"/>
		</defs>
		<clipPath id="SVGID_50_">
			<use xlink:href="#SVGID_49_"  overflow="visible"/>
		</clipPath>
		<path clip-path="url(#SVGID_50_)" fill="#FFF0E4" d="M368.779,74.6c-7.388-6.997-18.625-6.864-28.082-4.957
			c3.224,4.257,6.062,8.81,8.453,13.615c4.771,1.281,15.486,5.634,23.799,19.867c0,0,3.576,7.688-16.435,1.892
			c0.603,3.104,1.033,6.264,1.285,9.467c3.966,0.648,8.429,1.056,13.437,1.082C398.273,115.71,383.69,88.719,368.779,74.6"/>
	</g>
	<g>
		<defs>
			<rect id="SVGID_51_" x="-627.127" y="-416.256" width="1599.998" height="1200"/>
		</defs>
		<clipPath id="SVGID_52_">
			<use xlink:href="#SVGID_51_"  overflow="visible"/>
		</clipPath>
		<path clip-path="url(#SVGID_52_)" fill="#F37A7C" d="M372.949,103.124c-8.312-14.232-19.027-18.585-23.799-19.866
			c3.391,6.812,5.886,14.12,7.362,21.759C376.525,110.812,372.949,103.124,372.949,103.124"/>
	</g>
	<g>
		<defs>
			<rect id="SVGID_53_" x="-627.127" y="-416.256" width="1599.998" height="1200"/>
		</defs>
		<clipPath id="SVGID_54_">
			<use xlink:href="#SVGID_53_"  overflow="visible"/>
		</clipPath>
		<path clip-path="url(#SVGID_54_)" fill="#BFB5B0" d="M339.183,67.702c5.634-2.853,15.275-9.248,19.603-21.08
			c6.312-17.251,1.959-23.019-2.252-24.211c-3.523-0.999-13.879,25.973-32.33,30.701C329.784,57.357,334.812,62.263,339.183,67.702"
			/>
	</g>
	<g>
		<defs>
			<rect id="SVGID_55_" x="-627.127" y="-416.256" width="1599.998" height="1200"/>
		</defs>
		<clipPath id="SVGID_56_">
			<use xlink:href="#SVGID_55_"  overflow="visible"/>
		</clipPath>
		<path clip-path="url(#SVGID_56_)" fill="#FFEAD0" d="M186.232,132.062c-0.146-1.153-0.26-2.316-0.361-3.482
			C185.971,129.746,186.087,130.907,186.232,132.062"/>
	</g>
	<g>
		<defs>
			<rect id="SVGID_57_" x="-627.127" y="-416.256" width="1599.998" height="1200"/>
		</defs>
		<clipPath id="SVGID_58_">
			<use xlink:href="#SVGID_57_"  overflow="visible"/>
		</clipPath>
		<path clip-path="url(#SVGID_58_)" fill="#FFEAD0" d="M185.777,127.505c-0.082-1.108-0.127-2.226-0.166-3.344
			C185.65,125.279,185.697,126.397,185.777,127.505"/>
	</g>
	<g>
		<defs>
			<rect id="SVGID_59_" x="-627.127" y="-416.256" width="1599.998" height="1200"/>
		</defs>
		<clipPath id="SVGID_60_">
			<use xlink:href="#SVGID_59_"  overflow="visible"/>
		</clipPath>
		<path clip-path="url(#SVGID_60_)" fill="#FFEAD0" d="M186.316,109.834c0.051-0.377,0.105-0.752,0.162-1.127
			C186.422,109.082,186.367,109.457,186.316,109.834"/>
	</g>
	<g>
		<defs>
			<rect id="SVGID_61_" x="-627.127" y="-416.256" width="1599.998" height="1200"/>
		</defs>
		<clipPath id="SVGID_62_">
			<use xlink:href="#SVGID_61_"  overflow="visible"/>
		</clipPath>
		<path clip-path="url(#SVGID_62_)" fill="#FFEAD0" d="M186.96,105.769c0.063-0.347,0.121-0.693,0.188-1.037
			C187.082,105.075,187.025,105.422,186.96,105.769"/>
	</g>
	<g>
		<defs>
			<rect id="SVGID_63_" x="-627.127" y="-416.256" width="1599.998" height="1200"/>
		</defs>
		<clipPath id="SVGID_64_">
			<use xlink:href="#SVGID_63_"  overflow="visible"/>
		</clipPath>
		<path clip-path="url(#SVGID_64_)" fill="#FFEAD0" d="M187.962,100.988c0.056-0.228,0.118-0.452,0.177-0.679
			C188.081,100.536,188.018,100.761,187.962,100.988"/>
	</g>
	<g>
		<defs>
			<rect id="SVGID_65_" x="-627.127" y="-416.256" width="1599.998" height="1200"/>
		</defs>
		<clipPath id="SVGID_66_">
			<use xlink:href="#SVGID_65_"  overflow="visible"/>
		</clipPath>
		<path clip-path="url(#SVGID_66_)" fill="#FFEAD0" d="M185.596,118.351c0.053-1.523,0.143-3.052,0.276-4.587
			C185.738,115.299,185.648,116.827,185.596,118.351"/>
	</g>
	<g>
		<defs>
			<rect id="SVGID_67_" x="-627.127" y="-416.256" width="1599.998" height="1200"/>
		</defs>
		<clipPath id="SVGID_68_">
			<use xlink:href="#SVGID_67_"  overflow="visible"/>
		</clipPath>
		<path clip-path="url(#SVGID_68_)" fill="#FFEAD0" d="M187.876,141.083c-0.306-1.28-0.576-2.574-0.825-3.874
			C187.298,138.51,187.573,139.802,187.876,141.083"/>
	</g>
	<g>
		<defs>
			<rect id="SVGID_69_" x="-627.127" y="-416.256" width="1599.998" height="1200"/>
		</defs>
		<clipPath id="SVGID_70_">
			<use xlink:href="#SVGID_69_"  overflow="visible"/>
		</clipPath>
		<path clip-path="url(#SVGID_70_)" fill="#FFEAD0" d="M186.936,136.594c-0.224-1.216-0.412-2.443-0.582-3.676
			C186.523,134.151,186.712,135.377,186.936,136.594"/>
	</g>
	<g>
		<defs>
			<rect id="SVGID_71_" x="-627.127" y="-416.256" width="1599.998" height="1200"/>
		</defs>
		<clipPath id="SVGID_72_">
			<use xlink:href="#SVGID_71_"  overflow="visible"/>
		</clipPath>
		<path clip-path="url(#SVGID_72_)" fill="#FFF0E4" d="M314.389,47.202c-10.587-6.183-22.667-10.19-35.689-11.329
			c-12.617-1.104-24.822,0.607-36.027,4.577c3.967,22.311-10.928,48.567-20.254,67.333c-7.85,15.79-18.229,31.1-31.947,42.066
			c2.508,7.062,5.898,13.729,10.09,19.834c1.877,2.731,3.922,5.34,6.099,7.836c0.62-33.913,35.092-33.426,61.647-31.103
			c26.939,2.356,61.566,7.994,55.047,42.812c3.203-2.453,6.23-5.129,9.061-8.01c5.396-5.496,10.046-11.738,13.821-18.562
			c-11.185-13.055-18.556-29.545-23.437-46.092C316.914,96.61,306.917,68.433,314.389,47.202 M244.044,131.779
			c-7.448-0.922-12.735-7.701-11.813-15.148c0.92-7.444,7.699-12.733,15.146-11.812c7.442,0.919,12.733,7.7,11.81,15.146
			C258.266,127.407,251.488,132.696,244.044,131.779 M283.312,122.075c0.385-7.492,6.772-13.253,14.261-12.864
			c7.491,0.385,13.25,6.771,12.864,14.262c-0.386,7.494-6.77,13.253-14.266,12.867C288.681,135.951,282.925,129.564,283.312,122.075
			"/>
	</g>
	<g>
		<defs>
			<rect id="SVGID_73_" x="-627.127" y="-416.256" width="1599.998" height="1200"/>
		</defs>
		<clipPath id="SVGID_74_">
			<use xlink:href="#SVGID_73_"  overflow="visible"/>
		</clipPath>
		<path clip-path="url(#SVGID_74_)" fill="#FFEAD0" d="M189.059,145.511c-0.396-1.336-0.757-2.687-1.088-4.048
			C188.301,142.825,188.665,144.175,189.059,145.511"/>
	</g>
	<g>
		<defs>
			<rect id="SVGID_75_" x="-627.127" y="-416.256" width="1599.998" height="1200"/>
		</defs>
		<clipPath id="SVGID_76_">
			<use xlink:href="#SVGID_75_"  overflow="visible"/>
		</clipPath>
		<path clip-path="url(#SVGID_76_)" fill="#FFEAD0" d="M190.471,149.852c-0.488-1.377-0.943-2.769-1.361-4.175
			C189.527,147.084,189.982,148.475,190.471,149.852"/>
	</g>
	<g>
		<defs>
			<rect id="SVGID_77_" x="-627.127" y="-416.256" width="1599.998" height="1200"/>
		</defs>
		<clipPath id="SVGID_78_">
			<use xlink:href="#SVGID_77_"  overflow="visible"/>
		</clipPath>
		<path clip-path="url(#SVGID_78_)" fill="#FFEAD0" d="M185.564,122.932c-0.021-1.121-0.004-2.25,0.02-3.379
			C185.559,120.682,185.543,121.81,185.564,122.932"/>
	</g>
	<g>
		<defs>
			<rect id="SVGID_79_" x="-627.127" y="-416.256" width="1599.998" height="1200"/>
		</defs>
		<clipPath id="SVGID_80_">
			<use xlink:href="#SVGID_79_"  overflow="visible"/>
		</clipPath>
		<path clip-path="url(#SVGID_80_)" fill="#FFF0E4" d="M191.314,90.305c-22.142,2.646-17.113-4.568-17.113-4.568
			c3.246-3.83,6.547-6.684,9.716-8.861c-5.101-0.877-9.86-3.647-13.123-8.136c-11.336,11.751-17.054,26.133,2.935,29.546
			c5.44,0.93,10.283,1.274,14.609,1.256C189.162,96.383,190.154,93.301,191.314,90.305"/>
	</g>
	<g>
		<defs>
			<rect id="SVGID_81_" x="-627.127" y="-416.256" width="1599.998" height="1200"/>
		</defs>
		<clipPath id="SVGID_82_">
			<use xlink:href="#SVGID_81_"  overflow="visible"/>
		</clipPath>
		<path clip-path="url(#SVGID_82_)" fill="#FFEAD0" d="M193.918,84.265c-0.208,0.437-0.411,0.874-0.611,1.314
			C193.507,85.139,193.71,84.701,193.918,84.265"/>
	</g>
	<g>
		<defs>
			<rect id="SVGID_83_" x="-627.127" y="-416.256" width="1599.998" height="1200"/>
		</defs>
		<clipPath id="SVGID_84_">
			<use xlink:href="#SVGID_83_"  overflow="visible"/>
		</clipPath>
		<path clip-path="url(#SVGID_84_)" fill="#FFEAD0" d="M192.281,87.916c-0.156,0.366-0.316,0.73-0.467,1.102
			C191.964,88.646,192.125,88.282,192.281,87.916"/>
	</g>
	<g>
		<defs>
			<rect id="SVGID_85_" x="-627.127" y="-416.256" width="1599.998" height="1200"/>
		</defs>
		<clipPath id="SVGID_86_">
			<use xlink:href="#SVGID_85_"  overflow="visible"/>
		</clipPath>
		<path clip-path="url(#SVGID_86_)" fill="#FFEAD0" d="M195.605,80.91c-0.188,0.353-0.361,0.714-0.545,1.069
			C195.244,81.624,195.417,81.263,195.605,80.91"/>
	</g>
	<g>
		<defs>
			<rect id="SVGID_87_" x="-627.127" y="-416.256" width="1599.998" height="1200"/>
		</defs>
		<clipPath id="SVGID_88_">
			<use xlink:href="#SVGID_87_"  overflow="visible"/>
		</clipPath>
		<path clip-path="url(#SVGID_88_)" fill="#FFEAD0" d="M200.132,73.406c-0.33,0.487-0.647,0.982-0.968,1.478
			C199.484,74.389,199.802,73.894,200.132,73.406"/>
	</g>
	<g>
		<defs>
			<rect id="SVGID_89_" x="-627.127" y="-416.256" width="1599.998" height="1200"/>
		</defs>
		<clipPath id="SVGID_90_">
			<use xlink:href="#SVGID_89_"  overflow="visible"/>
		</clipPath>
		<path clip-path="url(#SVGID_90_)" fill="#FFEAD0" d="M198.104,76.574c-0.285,0.464-0.57,0.93-0.849,1.401
			C197.533,77.504,197.818,77.038,198.104,76.574"/>
	</g>
	<g>
		<defs>
			<rect id="SVGID_91_" x="-627.127" y="-416.256" width="1599.998" height="1200"/>
		</defs>
		<clipPath id="SVGID_92_">
			<use xlink:href="#SVGID_91_"  overflow="visible"/>
		</clipPath>
		<path clip-path="url(#SVGID_92_)" fill="#BFB5B0" d="M242.641,40.461c-3.799,1.347-7.481,2.956-11.023,4.809
			c-17.928-7.384-23.539-36.546-27.232-36.17c-4.354,0.445-9.643,5.367-6.422,23.453c2.314,13.009,11.404,21.122,16.337,24.665
			C222.525,49.911,232.141,44.186,242.641,40.461"/>
	</g>
	<g>
		<defs>
			<rect id="SVGID_93_" x="-627.127" y="-416.256" width="1599.998" height="1200"/>
		</defs>
		<clipPath id="SVGID_94_">
			<use xlink:href="#SVGID_93_"  overflow="visible"/>
		</clipPath>
		<path clip-path="url(#SVGID_94_)" fill="#010101" d="M242.875,40.468L242.875,40.468c-0.001,0.005-0.121-0.002-0.132,0.002
			c-10.503,3.725-20.167,9.446-28.394,16.753c-0.084,0.076-0.193,0.151-0.279,0.228c-4.76,4.264-9.053,9.061-12.771,14.304
			c-0.389,0.548-0.783,1.095-1.16,1.652c-0.328,0.487-0.652,0.982-0.971,1.478c-0.361,0.558-0.715,1.122-1.062,1.689
			c-0.285,0.466-0.571,0.93-0.85,1.402c-0.566,0.967-1.119,1.943-1.648,2.935c-0.188,0.354-0.362,0.715-0.549,1.069
			c-0.389,0.756-0.771,1.517-1.14,2.285c-0.208,0.436-0.411,0.874-0.612,1.314c-0.354,0.771-0.692,1.551-1.024,2.337
			c-0.156,0.367-0.316,0.731-0.468,1.102c-0.172,0.426-0.334,0.858-0.5,1.287c-1.158,2.996-2.151,6.078-2.977,9.237
			c-0.066,0.256-0.135,0.511-0.199,0.769c-0.057,0.227-0.121,0.449-0.176,0.677c-0.299,1.236-0.566,2.486-0.812,3.743
			c-0.065,0.345-0.125,0.691-0.188,1.038c-0.176,0.973-0.338,1.952-0.481,2.938c-0.058,0.375-0.111,0.75-0.162,1.127
			c-0.174,1.302-0.328,2.608-0.443,3.93c-0.135,1.535-0.225,3.063-0.275,4.586c-0.016,0.403-0.008,0.8-0.016,1.202
			c-0.021,1.129-0.039,2.259-0.018,3.381c0.009,0.409,0.033,0.818,0.048,1.229c0.038,1.118,0.083,2.235,0.165,3.344
			c0.025,0.359,0.064,0.716,0.096,1.074c0.1,1.166,0.214,2.329,0.361,3.482c0.035,0.287,0.08,0.57,0.119,0.856
			c0.17,1.232,0.358,2.46,0.582,3.675c0.037,0.207,0.078,0.411,0.115,0.615c0.25,1.301,0.521,2.595,0.825,3.875
			c0.031,0.126,0.062,0.253,0.095,0.38c0.332,1.361,0.692,2.711,1.088,4.048c0.018,0.056,0.032,0.111,0.051,0.166
			c0.419,1.406,0.873,2.798,1.359,4.175c13.721-10.969,24.2-26.27,32.051-42.06C231.846,89.026,247.08,62.8,242.875,40.468"/>
	</g>
	<g>
		<defs>
			<rect id="SVGID_95_" x="-627.127" y="-416.256" width="1599.998" height="1200"/>
		</defs>
		<clipPath id="SVGID_96_">
			<use xlink:href="#SVGID_95_"  overflow="visible"/>
		</clipPath>
		<path clip-path="url(#SVGID_96_)" fill="#010101" d="M349.15,83.258c-2.392-4.806-5.229-9.358-8.453-13.615
			c-0.498-0.654-1-1.302-1.516-1.94c-4.372-5.439-9.396-10.345-14.979-14.59c-3.062-2.328-6.283-4.465-9.658-6.374
			c-0.055,0.152-0.102,0.311-0.155,0.465c-7.473,21.23,2.526,49.408,8.411,69.362c4.879,16.548,12.25,33.038,23.436,46.091
			c0.246,0.288,0.47,0.6,0.722,0.886c5.871-10.359,9.688-22.104,10.795-34.74c0.424-4.846,0.422-9.627,0.049-14.318
			c-0.252-3.203-0.684-6.362-1.285-9.467C355.036,97.378,352.541,90.07,349.15,83.258"/>
	</g>
	<g>
		<defs>
			<rect id="SVGID_97_" x="-627.127" y="-416.256" width="1599.998" height="1200"/>
		</defs>
		<clipPath id="SVGID_98_">
			<use xlink:href="#SVGID_97_"  overflow="visible"/>
		</clipPath>
		<path clip-path="url(#SVGID_98_)" fill="#FFFFFF" d="M310.438,123.473c0.386-7.489-5.373-13.876-12.864-14.262
			c-7.489-0.389-13.876,5.371-14.261,12.863c-0.388,7.491,5.368,13.877,12.859,14.266
			C303.668,136.726,310.052,130.967,310.438,123.473"/>
	</g>
	<g>
		<defs>
			<rect id="SVGID_99_" x="-627.127" y="-416.256" width="1599.998" height="1200"/>
		</defs>
		<clipPath id="SVGID_100_">
			<use xlink:href="#SVGID_99_"  overflow="visible"/>
		</clipPath>
		<path clip-path="url(#SVGID_100_)" fill="#FFFFFF" d="M259.186,119.964c0.924-7.445-4.367-14.227-11.81-15.145
			c-7.446-0.922-14.226,4.367-15.147,11.812c-0.92,7.447,4.365,14.227,11.814,15.148
			C251.488,132.696,258.266,127.407,259.186,119.964"/>
	</g>
	<g>
		<defs>
			<rect id="SVGID_101_" x="-627.127" y="-416.256" width="1599.998" height="1200"/>
		</defs>
		<clipPath id="SVGID_102_">
			<use xlink:href="#SVGID_101_"  overflow="visible"/>
		</clipPath>
		<path clip-path="url(#SVGID_102_)" fill="#F37A7C" d="M211.916,199.82c11.545,15.916,38.895-1.154,51.721-0.032
			c4.631,0.405,10.717,3.478,17.264,6.593c1.316,0.626,2.65,1.252,3.998,1.86c11.828,5.354,24.486,9.198,32.537-2.905
			c1.894-2.846,3.533-6.562,4.847-11.363c0.45-1.646,0.787-3.211,1.071-4.742c6.521-34.817-28.106-40.455-55.047-42.812
			c-26.557-2.323-61.027-2.811-61.649,31.103c-0.035,2.004,0.026,4.107,0.235,6.357C207.57,191.188,209.361,196.299,211.916,199.82
			 M299.682,171.818c3.562,0.312,6.194,3.449,5.883,7.009c-0.312,3.562-3.449,6.192-7.011,5.882
			c-3.559-0.312-6.192-3.449-5.881-7.01C292.984,174.141,296.124,171.507,299.682,171.818 M229.704,165.695
			c3.562,0.312,6.194,3.449,5.882,7.01c-0.311,3.561-3.449,6.193-7.01,5.882c-3.559-0.312-6.193-3.448-5.881-7.01
			C223.005,168.018,226.145,165.385,229.704,165.695"/>
	</g>
	<g>
		<defs>
			<rect id="SVGID_103_" x="-627.127" y="-416.256" width="1599.998" height="1200"/>
		</defs>
		<clipPath id="SVGID_104_">
			<use xlink:href="#SVGID_103_"  overflow="visible"/>
		</clipPath>
		<path clip-path="url(#SVGID_104_)" fill="#FFFFFF" d="M228.576,178.587c3.561,0.312,6.699-2.321,7.01-5.882
			c0.312-3.561-2.32-6.697-5.882-7.01c-3.56-0.312-6.698,2.32-7.009,5.882C222.383,175.137,225.018,178.275,228.576,178.587"/>
	</g>
	<g>
		<defs>
			<rect id="SVGID_105_" x="-627.127" y="-416.256" width="1599.998" height="1200"/>
		</defs>
		<clipPath id="SVGID_106_">
			<use xlink:href="#SVGID_105_"  overflow="visible"/>
		</clipPath>
		<path clip-path="url(#SVGID_106_)" fill="#FFFFFF" d="M298.556,184.709c3.56,0.312,6.697-2.322,7.009-5.881
			c0.312-3.561-2.321-6.698-5.882-7.01c-3.56-0.312-6.698,2.32-7.01,5.882C292.362,181.259,294.996,184.396,298.556,184.709"/>
	</g>
	<g>
		<defs>
			<rect id="SVGID_107_" x="-627.127" y="-416.256" width="1599.998" height="1200"/>
		</defs>
		<clipPath id="SVGID_108_">
			<use xlink:href="#SVGID_107_"  overflow="visible"/>
		</clipPath>
		<path clip-path="url(#SVGID_108_)" fill="#010101" d="M301.613,129.153c-2.52-2.791-2.295-7.095,0.496-9.611
			c1.387-1.252,3.146-1.825,4.877-1.743c-0.387-0.701-0.849-1.375-1.407-1.995c-3.895-4.317-10.552-4.661-14.87-0.766
			c-4.316,3.892-4.661,10.551-0.766,14.868c3.773,4.184,10.135,4.625,14.455,1.107C303.363,130.647,302.401,130.026,301.613,129.153
			"/>
	</g>
	<g>
		<defs>
			<rect id="SVGID_109_" x="-627.127" y="-416.256" width="1599.998" height="1200"/>
		</defs>
		<clipPath id="SVGID_110_">
			<use xlink:href="#SVGID_109_"  overflow="visible"/>
		</clipPath>
		<path clip-path="url(#SVGID_110_)" fill="#010101" d="M250.445,124.677c-2.52-2.791-2.295-7.095,0.496-9.611
			c1.388-1.252,3.147-1.825,4.877-1.743c-0.387-0.702-0.848-1.375-1.406-1.995c-3.895-4.317-10.553-4.661-14.871-0.766
			c-4.316,3.892-4.661,10.551-0.766,14.868c3.773,4.184,10.135,4.625,14.455,1.106C252.195,126.171,251.232,125.55,250.445,124.677"
			/>
	</g>
	<g>
		<defs>
			<rect id="SVGID_111_" x="-627.127" y="-416.256" width="1599.998" height="1200"/>
		</defs>
		<clipPath id="SVGID_112_">
			<use xlink:href="#SVGID_111_"  overflow="visible"/>
		</clipPath>
		<path clip-path="url(#SVGID_112_)" fill="#FFF0E4" d="M152.192,129.388c0,0-5.113-6.302-11.248,6.775
			c-6.135,13.076-21.728,19.631-7.157,24.661c14.571,5.031,32.068,9.121,31.244-6.473
			C164.206,138.758,171.108,131.01,152.192,129.388"/>
	</g>
	<g>
		<defs>
			<rect id="SVGID_113_" x="-627.127" y="-416.256" width="1599.998" height="1200"/>
		</defs>
		<clipPath id="SVGID_114_">
			<use xlink:href="#SVGID_113_"  overflow="visible"/>
		</clipPath>
		<path clip-path="url(#SVGID_114_)" fill="#FFF0E4" d="M99.77,151.527c0,0-18.849-12.585-29.619-4.032
			c-10.771,8.553-14.271,14.542-8.033,20.411c6.238,5.869,24.638,21.82,28.677,9.021S116.599,169.445,99.77,151.527"/>
	</g>
	<g>
		<defs>
			<rect id="SVGID_115_" x="-627.127" y="-416.256" width="1599.998" height="1200"/>
		</defs>
		<clipPath id="SVGID_116_">
			<use xlink:href="#SVGID_115_"  overflow="visible"/>
		</clipPath>
		<path clip-path="url(#SVGID_116_)" fill="#010101" d="M200.539,229.268c0,3.334-2.704,6.039-6.039,6.039
			c-3.336,0-6.039-2.705-6.039-6.039c0-3.336,2.703-6.039,6.039-6.039C197.834,223.229,200.539,225.932,200.539,229.268"/>
	</g>
</g>
</svg>
