<?xml version="1.0" encoding="utf-8"?>
<!-- Generator: Adobe Illustrator 15.0.2, SVG Export Plug-In . SVG Version: 6.00 Build 0)  -->
<!DOCTYPE svg PUBLIC "-//W3C//DTD SVG 1.1//EN" "http://www.w3.org/Graphics/SVG/1.1/DTD/svg11.dtd">
<svg version="1.1" id="Layer_1" xmlns="http://www.w3.org/2000/svg" xmlns:xlink="http://www.w3.org/1999/xlink" x="0px" y="0px"
	 width="1594px" height="294px" viewBox="0 0 1594 294" enable-background="new 0 0 1594 294" xml:space="preserve">
<rect x="-59.92" y="-337.317" display="none" fill="#63737A" width="1685.998" height="945.774"/>
<g>
	<defs>
		<rect id="SVGID_1_" x="-606.627" y="-415.756" width="1599.998" height="1200"/>
	</defs>
	<clipPath id="SVGID_2_">
		<use xlink:href="#SVGID_1_"  overflow="visible"/>
	</clipPath>
	<path clip-path="url(#SVGID_2_)" fill="#FF7B7B" d="M101.743,98.754h109.541c0,0-3.95,23.277-4.653,24.254
		c-0.704,0.976-28.443,8.586-53.174,6.018c-24.732-2.567-55.791-2.669-55.791-2.669"/>
	<path clip-path="url(#SVGID_2_)" fill="#BFB5B0" d="M314.601,258.587c0,7.956-60.644,14.406-135.451,14.406
		c-74.807,0-135.451-6.45-135.451-14.406s60.644-14.406,135.451-14.406C253.958,244.181,314.601,250.631,314.601,258.587"/>
	<path clip-path="url(#SVGID_2_)" d="M63.882,129.343c0,35.271,15.557,63.865,34.747,63.865V65.478
		C79.439,65.478,63.882,94.072,63.882,129.343"/>
	<path clip-path="url(#SVGID_2_)" d="M232.143,129.026c0-35.097,15.479-63.548,34.574-63.548h-16.12v0.286
		c-13.552,0.952-24.423,21.079-24.825,46.041h-73.538h-20.412c0.838,5.479,1.296,11.25,1.296,17.221
		c0,35.096-15.48,63.548-34.575,63.548v0.661h169.519v-0.725c-0.447,0.032-0.894,0.063-1.344,0.063
		C247.623,192.574,232.143,164.122,232.143,129.026"/>
	<path clip-path="url(#SVGID_2_)" d="M126.4,65.478H98.543c5.38,0,10.472,2.259,15.013,6.288
		C117.34,67.772,121.723,65.478,126.4,65.478"/>
	<path clip-path="url(#SVGID_2_)" fill="#3F494F" d="M268.06,65.478h-1.343c0.451,0,0.896,0.031,1.343,0.062V65.478z"/>
	<path clip-path="url(#SVGID_2_)" d="M133.118,129.026c0-5.971-0.458-11.742-1.295-17.221H126.4h-25.833
		c0.229-17.144,5.399-32.027,12.989-40.039c-4.541-4.029-9.633-6.288-15.013-6.288v127.096
		C117.638,192.574,133.118,164.122,133.118,129.026"/>
	<path clip-path="url(#SVGID_2_)" fill="#3F494F" d="M301.292,129.026c0-34.269-14.76-62.187-33.232-63.486v126.971
		C286.533,191.213,301.292,163.295,301.292,129.026"/>
	<path clip-path="url(#SVGID_2_)" fill="#3F494F" d="M266.717,65.478c-19.095,0-34.575,28.451-34.575,63.548
		c0,35.096,15.48,63.548,34.575,63.548c0.45,0,0.897-0.031,1.343-0.062V65.54C267.615,65.509,267.167,65.478,266.717,65.478"/>
	<path clip-path="url(#SVGID_2_)" d="M106.067,254.503l-0.183-0.09c-5.016-2.471-7.08-8.538-4.61-13.555l30.994-62.942l18.347,9.034
		l-30.995,62.942C117.151,254.909,111.083,256.973,106.067,254.503"/>
	<path clip-path="url(#SVGID_2_)" d="M213.704,197.257c-17.425,0-31.551,14.126-31.551,31.552c0,17.425,14.126,31.551,31.551,31.551
		s31.551-14.126,31.551-31.551C245.254,211.383,231.128,197.257,213.704,197.257 M213.704,247.595
		c-10.376,0-18.787-8.41-18.787-18.786s8.411-18.787,18.787-18.787s18.787,8.411,18.787,18.787S224.08,247.595,213.704,247.595"/>
	<path clip-path="url(#SVGID_2_)" d="M214.619,209.31h-0.205c-5.59,0-10.121-4.532-10.121-10.123v-70.161h20.449v70.161
		C224.742,204.777,220.21,209.31,214.619,209.31"/>
	<path clip-path="url(#SVGID_2_)" d="M77.706,122.483H52.922V47.559c0,2.386-5.871,4.32-13.114,4.32
		c-7.242,0-13.113-1.934-13.113-4.32v102.39H88.7L77.706,122.483z"/>
	<path clip-path="url(#SVGID_2_)" d="M233.042,183.465l1.529,9.771l-14.893,0.463c0,0-22.71-17.755-12.801-75.889
		C206.878,117.81,237.539,174.356,233.042,183.465"/>
	<path clip-path="url(#SVGID_2_)" fill="#FFEACF" d="M213.787,55.516"/>
	<path clip-path="url(#SVGID_2_)" fill="#FFEACF" d="M191.317,69.215c0.937-0.969,1.912-1.922,2.914-2.848
		C193.229,67.293,192.253,68.246,191.317,69.215"/>
	<path clip-path="url(#SVGID_2_)" fill="#FFEACF" d="M194.238,66.36c1.009-0.932,2.045-1.838,3.096-2.711
		C196.283,64.522,195.247,65.429,194.238,66.36"/>
	<path clip-path="url(#SVGID_2_)" fill="#FFEACF" d="M197.343,63.642c1.049-0.872,2.115-1.708,3.184-2.503
		C199.458,61.934,198.392,62.771,197.343,63.642"/>
	<path clip-path="url(#SVGID_2_)" fill="#FFEACF" d="M200.545,61.125c1.071-0.796,2.147-1.551,3.216-2.257
		C202.693,59.574,201.617,60.329,200.545,61.125"/>
	<path clip-path="url(#SVGID_2_)" fill="#FFEACF" d="M206.423,57.414c0.582-0.268,1.174-0.506,1.771-0.716
		C207.597,56.908,207.005,57.146,206.423,57.414"/>
	<path clip-path="url(#SVGID_2_)" fill="#FFEACF" d="M203.761,58.868c0.675-0.446,1.372-0.827,2.08-1.18
		C205.133,58.041,204.436,58.422,203.761,58.868"/>
	<path clip-path="url(#SVGID_2_)" fill="#FFEACF" d="M208.778,75.448c6.409-3.32,11.729-3.911,14.032-3.982
		c-0.373,0.502-0.73,1.017-1.092,1.526c3.719-5.244,8-10.042,12.76-14.305c-0.469,0.419-0.936,0.837-1.395,1.267
		c-2.852-1.163-5.928-2.193-9.083-2.891C221.076,64.347,215.308,70.307,208.778,75.448"/>
	<path clip-path="url(#SVGID_2_)" d="M204.417,77.375c1.518-1.042,2.964-1.555,4.396-2.296c6.529-5.143,12.31-11.241,15.189-18.016
		H224l-4.659-0.694l-0.812-0.094c-1.625-0.142-3.058-0.577-4.656-0.438c-0.175,0.016-0.457-0.016-0.63,0.002
		c-0.649,0.071-1.282,0.031-1.922,0.153c-0.155,0.029-0.305-0.015-0.458,0.019c-0.756,0.158-1.501,0.323-2.24,0.562
		c-0.145,0.047-0.283,0.089-0.43,0.141c-0.598,0.209-1.188,0.44-1.77,0.709c-0.197,0.088-0.391,0.173-0.584,0.27
		c-0.707,0.352-1.403,0.73-2.078,1.178c-1.068,0.705-2.145,1.459-3.216,2.254c-0.005,0.006-0.012,0.01-0.017,0.014
		c-1.07,0.796-2.137,1.632-3.186,2.503c-0.003,0.003-0.007,0.006-0.01,0.008c-1.051,0.873-2.087,1.779-3.096,2.711
		c-0.002,0.003-0.004,0.004-0.008,0.007c-1.001,0.926-1.975,1.879-2.912,2.849c-0.009,0.007-0.016,0.016-0.024,0.023
		C194.555,73.728,199.317,76.498,204.417,77.375"/>
	<path clip-path="url(#SVGID_2_)" fill="#FF7B7B" d="M208.844,74.709c-1.432,0.742-2.91,1.624-4.427,2.666
		c-3.169,2.178-6.469,5.032-9.716,8.861c0,0-5.028,7.214,17.113,4.568c0.165-0.43,0.327-0.86,0.499-1.287
		c0.15-0.37,0.311-0.735,0.467-1.102c0.331-0.786,0.672-1.564,1.025-2.337c0.201-0.44,0.404-0.878,0.611-1.313
		c0.369-0.77,0.752-1.53,1.141-2.287c0.186-0.354,0.359-0.715,0.549-1.068c0.529-0.99,1.081-1.968,1.648-2.935
		c0.276-0.474,0.562-0.937,0.848-1.401c0.348-0.568,0.701-1.133,1.062-1.691c0.319-0.494,0.638-0.989,0.968-1.478
		c0.376-0.557,0.764-1.105,1.152-1.652c0.361-0.51,0.719-1.024,1.092-1.526C220.574,70.798,215.253,71.389,208.844,74.709"/>
	<path clip-path="url(#SVGID_2_)" fill="#FFF0E3" d="M389.279,75.1c-7.387-6.997-18.625-6.864-28.082-4.957
		c3.224,4.257,6.062,8.81,8.453,13.615c4.771,1.281,15.487,5.634,23.799,19.867c0,0,3.576,7.688-16.434,1.892
		c0.602,3.104,1.033,6.264,1.285,9.467c3.966,0.648,8.428,1.056,13.436,1.082C418.773,116.21,404.19,89.219,389.279,75.1"/>
	<path clip-path="url(#SVGID_2_)" fill="#FF7B7B" d="M393.449,103.624c-8.312-14.232-19.027-18.585-23.799-19.866
		c3.391,6.812,5.886,14.12,7.363,21.759C397.025,111.312,393.449,103.624,393.449,103.624"/>
	<path clip-path="url(#SVGID_2_)" fill="#BFB5B0" d="M359.683,68.202c5.633-2.853,15.275-9.248,19.602-21.08
		c6.312-17.251,1.959-23.019-2.252-24.211c-3.523-0.999-13.879,25.973-32.33,30.701C350.284,57.857,355.312,62.763,359.683,68.202"
		/>
	<path clip-path="url(#SVGID_2_)" fill="#FFEACF" d="M206.732,132.562c-0.146-1.153-0.26-2.316-0.361-3.482
		C206.471,130.246,206.587,131.407,206.732,132.562"/>
	<path clip-path="url(#SVGID_2_)" fill="#FFEACF" d="M206.277,128.005c-0.082-1.108-0.127-2.226-0.165-3.344
		C206.15,125.779,206.197,126.897,206.277,128.005"/>
	<path clip-path="url(#SVGID_2_)" fill="#FFEACF" d="M206.816,110.334c0.051-0.377,0.106-0.752,0.162-1.127
		C206.922,109.582,206.867,109.957,206.816,110.334"/>
	<path clip-path="url(#SVGID_2_)" fill="#FFEACF" d="M207.46,106.269c0.064-0.347,0.121-0.693,0.189-1.037
		C207.582,105.575,207.525,105.922,207.46,106.269"/>
	<path clip-path="url(#SVGID_2_)" fill="#FFEACF" d="M208.462,101.488c0.055-0.228,0.118-0.452,0.176-0.679
		C208.581,101.036,208.517,101.261,208.462,101.488"/>
	<path clip-path="url(#SVGID_2_)" fill="#FFEACF" d="M206.096,118.851c0.052-1.523,0.142-3.052,0.276-4.587
		C206.238,115.799,206.148,117.327,206.096,118.851"/>
	<path clip-path="url(#SVGID_2_)" fill="#FFEACF" d="M208.376,141.583c-0.305-1.28-0.576-2.574-0.825-3.874
		C207.798,139.01,208.073,140.302,208.376,141.583"/>
	<path clip-path="url(#SVGID_2_)" fill="#FFEACF" d="M207.435,137.094c-0.223-1.216-0.412-2.443-0.582-3.676
		C207.023,134.651,207.212,135.877,207.435,137.094"/>
	<path clip-path="url(#SVGID_2_)" fill="#FFF0E3" d="M334.889,47.702c-10.587-6.183-22.667-10.19-35.69-11.329
		c-12.617-1.104-24.822,0.607-36.027,4.577c3.967,22.311-10.928,48.567-20.254,67.333c-7.85,15.79-18.229,31.1-31.947,42.067
		c2.508,7.062,5.898,13.729,10.09,19.834c1.877,2.731,3.922,5.339,6.098,7.835c0.621-33.912,35.092-33.425,61.648-31.102
		c26.939,2.357,61.566,7.994,55.047,42.812c3.203-2.454,6.23-5.13,9.06-8.01c5.396-5.496,10.046-11.739,13.821-18.563
		c-11.184-13.055-18.555-29.545-23.436-46.092C337.414,97.11,327.417,68.933,334.889,47.702 M264.544,132.279
		c-7.449-0.922-12.736-7.701-11.814-15.148c0.921-7.444,7.7-12.733,15.146-11.812c7.442,0.919,12.733,7.7,11.81,15.146
		C278.765,127.907,271.988,133.196,264.544,132.279 M303.812,122.575c0.385-7.492,6.773-13.253,14.261-12.864
		c7.491,0.385,13.25,6.771,12.865,14.262c-0.386,7.494-6.77,13.253-14.266,12.867C309.181,136.451,303.425,130.064,303.812,122.575"
		/>
	<path clip-path="url(#SVGID_2_)" fill="#FFEACF" d="M209.559,146.011c-0.396-1.336-0.757-2.687-1.089-4.048
		C208.801,143.325,209.165,144.675,209.559,146.011"/>
	<path clip-path="url(#SVGID_2_)" fill="#FFEACF" d="M210.97,150.351c-0.488-1.377-0.942-2.768-1.361-4.174
		C210.028,147.584,210.482,148.974,210.97,150.351"/>
	<path clip-path="url(#SVGID_2_)" fill="#FFEACF" d="M206.064,123.432c-0.021-1.121-0.004-2.25,0.02-3.379
		C206.058,121.182,206.043,122.31,206.064,123.432"/>
	<path clip-path="url(#SVGID_2_)" fill="#FFF0E3" d="M211.814,90.805c-22.141,2.646-17.113-4.568-17.113-4.568
		c3.246-3.83,6.547-6.684,9.716-8.861c-5.1-0.877-9.861-3.647-13.123-8.136c-11.336,11.751-17.054,26.133,2.935,29.546
		c5.44,0.93,10.283,1.274,14.609,1.256C209.662,96.883,210.655,93.801,211.814,90.805"/>
	<path clip-path="url(#SVGID_2_)" fill="#FFEACF" d="M214.418,84.765c-0.208,0.437-0.411,0.874-0.612,1.314
		C214.007,85.639,214.21,85.201,214.418,84.765"/>
	<path clip-path="url(#SVGID_2_)" fill="#FFEACF" d="M212.781,88.416c-0.156,0.366-0.316,0.73-0.467,1.102
		C212.464,89.146,212.625,88.782,212.781,88.416"/>
	<path clip-path="url(#SVGID_2_)" fill="#FFEACF" d="M216.106,81.41c-0.188,0.353-0.362,0.714-0.546,1.069
		C215.744,82.124,215.917,81.763,216.106,81.41"/>
	<path clip-path="url(#SVGID_2_)" fill="#FFEACF" d="M220.632,73.906c-0.33,0.487-0.648,0.982-0.968,1.478
		C219.984,74.889,220.302,74.394,220.632,73.906"/>
	<path clip-path="url(#SVGID_2_)" fill="#FFEACF" d="M218.603,77.074c-0.285,0.464-0.57,0.93-0.848,1.401
		C218.033,78.004,218.318,77.538,218.603,77.074"/>
	<path clip-path="url(#SVGID_2_)" fill="#BFB5B0" d="M263.14,40.961c-3.798,1.347-7.481,2.956-11.023,4.809
		c-17.928-7.384-23.539-36.546-27.232-36.17c-4.354,0.445-9.643,5.367-6.422,23.453c2.314,13.009,11.404,21.122,16.337,24.665
		C243.025,50.411,252.64,44.686,263.14,40.961"/>
	<path clip-path="url(#SVGID_2_)" d="M263.375,40.968L263.375,40.968c-0.001,0.005-0.121-0.002-0.132,0.002
		c-10.503,3.725-20.167,9.446-28.394,16.753c-0.084,0.076-0.193,0.151-0.279,0.228c-4.76,4.264-9.053,9.061-12.771,14.304
		c-0.389,0.548-0.784,1.095-1.16,1.652c-0.328,0.487-0.652,0.982-0.971,1.478c-0.361,0.558-0.715,1.122-1.062,1.689
		c-0.285,0.466-0.572,0.93-0.85,1.402c-0.566,0.967-1.119,1.943-1.648,2.935c-0.189,0.354-0.363,0.715-0.549,1.069
		c-0.389,0.756-0.771,1.517-1.14,2.285c-0.208,0.436-0.411,0.874-0.612,1.314c-0.354,0.771-0.693,1.551-1.025,2.337
		c-0.156,0.367-0.316,0.731-0.467,1.102c-0.172,0.426-0.334,0.858-0.5,1.287c-1.159,2.996-2.152,6.078-2.977,9.237
		c-0.066,0.256-0.135,0.511-0.199,0.769c-0.057,0.227-0.121,0.449-0.176,0.677c-0.299,1.236-0.566,2.486-0.812,3.743
		c-0.066,0.345-0.126,0.691-0.189,1.038c-0.176,0.973-0.338,1.952-0.482,2.938c-0.057,0.375-0.111,0.75-0.162,1.127
		c-0.174,1.302-0.328,2.608-0.443,3.93c-0.135,1.535-0.225,3.063-0.276,4.586c-0.015,0.403-0.007,0.8-0.015,1.202
		c-0.021,1.129-0.039,2.259-0.018,3.381c0.009,0.409,0.034,0.818,0.048,1.229c0.038,1.118,0.083,2.235,0.165,3.344
		c0.026,0.359,0.064,0.716,0.096,1.074c0.1,1.166,0.214,2.329,0.361,3.482c0.035,0.287,0.08,0.57,0.119,0.856
		c0.17,1.232,0.359,2.46,0.582,3.675c0.037,0.207,0.078,0.411,0.116,0.615c0.249,1.301,0.521,2.595,0.825,3.875
		c0.031,0.126,0.062,0.253,0.094,0.38c0.332,1.361,0.693,2.711,1.089,4.048c0.017,0.056,0.032,0.111,0.05,0.166
		c0.419,1.406,0.873,2.797,1.36,4.174c13.72-10.968,24.2-26.269,32.05-42.059C252.345,89.526,267.58,63.3,263.375,40.968"/>
	<path clip-path="url(#SVGID_2_)" d="M369.65,83.758c-2.391-4.806-5.229-9.358-8.453-13.615c-0.498-0.654-1-1.302-1.515-1.94
		c-4.372-5.439-9.397-10.345-14.979-14.59c-3.061-2.328-6.283-4.465-9.658-6.374c-0.055,0.152-0.102,0.311-0.155,0.465
		c-7.473,21.23,2.526,49.408,8.411,69.362c4.879,16.548,12.25,33.038,23.435,46.091c0.246,0.289,0.47,0.6,0.722,0.886
		c5.871-10.36,9.689-22.104,10.795-34.74c0.424-4.846,0.422-9.627,0.049-14.318c-0.252-3.203-0.684-6.362-1.285-9.467
		C375.536,97.878,373.041,90.57,369.65,83.758"/>
	<path clip-path="url(#SVGID_2_)" fill="#FFFFFF" d="M330.938,123.973c0.385-7.489-5.374-13.876-12.865-14.262
		c-7.489-0.389-13.876,5.371-14.261,12.863c-0.387,7.491,5.369,13.877,12.86,14.266
		C324.168,137.226,330.552,131.467,330.938,123.973"/>
	<path clip-path="url(#SVGID_2_)" fill="#FFFFFF" d="M279.685,120.464c0.924-7.445-4.367-14.227-11.809-15.145
		c-7.446-0.922-14.226,4.367-15.147,11.812c-0.921,7.447,4.365,14.227,11.814,15.148
		C271.988,133.196,278.765,127.907,279.685,120.464"/>
	<path clip-path="url(#SVGID_2_)" fill="#FF7B7B" d="M232.416,200.321c11.545,15.915,38.895-1.155,51.721-0.033
		c4.631,0.405,10.717,3.477,17.264,6.593c1.316,0.626,2.65,1.252,3.997,1.86c11.829,5.354,24.487,9.198,32.538-2.905
		c1.893-2.846,3.533-6.563,4.846-11.363c0.45-1.646,0.787-3.211,1.072-4.742c6.521-34.818-28.107-40.455-55.047-42.812
		c-26.557-2.323-61.027-2.811-61.65,31.103c-0.035,2.003,0.027,4.107,0.235,6.357C228.07,191.687,229.861,196.799,232.416,200.321
		 M320.182,172.318c3.561,0.312,6.194,3.45,5.882,7.009c-0.311,3.561-3.449,6.193-7.01,5.882c-3.559-0.312-6.193-3.449-5.881-7.01
		C313.484,174.641,316.624,172.007,320.182,172.318 M250.204,166.196c3.561,0.312,6.194,3.449,5.882,7.009
		c-0.311,3.561-3.449,6.193-7.01,5.882c-3.559-0.312-6.193-3.449-5.881-7.01C243.505,168.518,246.644,165.885,250.204,166.196"/>
	<path clip-path="url(#SVGID_2_)" fill="#FFFFFF" d="M249.076,179.087c3.561,0.312,6.699-2.322,7.01-5.882
		c0.312-3.561-2.321-6.697-5.882-7.009c-3.56-0.312-6.698,2.32-7.009,5.881C242.883,175.637,245.517,178.775,249.076,179.087"/>
	<path clip-path="url(#SVGID_2_)" fill="#FFFFFF" d="M319.056,185.209c3.559,0.312,6.697-2.322,7.008-5.881
		c0.312-3.561-2.321-6.698-5.881-7.01s-6.699,2.321-7.01,5.882C312.862,181.759,315.496,184.897,319.056,185.209"/>
	<path clip-path="url(#SVGID_2_)" d="M322.113,129.653c-2.519-2.791-2.295-7.095,0.496-9.611c1.387-1.252,3.146-1.825,4.877-1.743
		c-0.386-0.701-0.848-1.375-1.407-1.995c-3.894-4.317-10.552-4.661-14.87-0.766c-4.316,3.892-4.661,10.551-0.766,14.868
		c3.774,4.184,10.135,4.625,14.455,1.107C323.863,131.147,322.901,130.526,322.113,129.653"/>
	<path clip-path="url(#SVGID_2_)" d="M270.945,125.177c-2.519-2.791-2.295-7.095,0.496-9.611c1.388-1.252,3.148-1.825,4.877-1.743
		c-0.386-0.702-0.848-1.375-1.406-1.995c-3.895-4.317-10.553-4.661-14.871-0.766c-4.316,3.892-4.661,10.551-0.766,14.868
		c3.774,4.184,10.135,4.625,14.455,1.106C272.695,126.671,271.733,126.05,270.945,125.177"/>
	<path clip-path="url(#SVGID_2_)" fill="#FFF0E3" d="M172.692,129.888c0,0-5.113-6.302-11.248,6.775
		c-6.135,13.076-21.728,19.631-7.157,24.661c14.571,5.031,32.068,9.121,31.244-6.472
		C184.706,139.258,191.608,131.51,172.692,129.888"/>
	<path clip-path="url(#SVGID_2_)" fill="#FFF0E3" d="M120.27,152.027c0,0-18.849-12.585-29.619-4.032
		c-10.771,8.553-14.271,14.542-8.033,20.411c6.238,5.869,24.638,21.821,28.677,9.021S137.099,169.945,120.27,152.027"/>
	<path clip-path="url(#SVGID_2_)" d="M221.039,229.767c0,3.335-2.704,6.039-6.039,6.039c-3.336,0-6.039-2.704-6.039-6.039
		s2.703-6.039,6.039-6.039C218.334,223.728,221.039,226.432,221.039,229.767"/>
</g>
<path fill="#FF7B7B" stroke="#000000" stroke-miterlimit="10" d="M514.723,77.889c16.445,0,29.276,3.2,38.491,9.598
	c9.213,6.4,13.82,15.968,13.82,28.701c0,6.461-1.711,12.237-5.132,17.325c-3.427,5.086-8.401,8.913-14.93,11.469
	c8.386,1.793,14.672,5.633,18.863,11.519c4.189,5.891,6.287,12.705,6.287,20.448c0,13.373-4.416,23.501-13.246,30.379
	c-8.83,6.88-21.343,10.316-37.528,10.316h-68.727V200.85l14.877-2.883V97.66l-14.877-2.881v-16.89h14.877H514.723z M495.523,136.439
	h20.158c7.49,0,13.25-1.533,17.278-4.607c4.035-3.072,6.046-7.549,6.046-13.437c0-6.464-2.027-11.235-6.094-14.301
	c-4.064-3.074-10.128-4.609-18.188-4.609h-19.2V136.439z M495.523,155.829v40.315h25.825c7.421,0,13.084-1.614,16.988-4.847
	c3.903-3.23,5.855-8.014,5.855-14.348c0-6.85-1.665-12.08-4.993-15.696c-3.327-3.615-8.576-5.424-15.741-5.424H495.523z"/>
<path fill="#FF7B7B" stroke="#000000" stroke-miterlimit="10" d="M644.687,77.889c16.444,0,29.275,3.2,38.488,9.598
	c9.22,6.4,13.825,15.968,13.825,28.701c0,6.461-1.713,12.237-5.135,17.325c-3.425,5.086-8.401,8.913-14.928,11.469
	c8.385,1.793,14.669,5.633,18.862,11.519c4.188,5.891,6.291,12.705,6.291,20.448c0,13.373-4.416,23.501-13.246,30.379
	c-8.835,6.88-21.343,10.316-37.533,10.316h-68.727V200.85l14.876-2.883V97.66l-14.876-2.881v-16.89h14.876H644.687z
	 M625.492,136.439h20.155c7.487,0,13.246-1.533,17.276-4.607c4.031-3.072,6.048-7.549,6.048-13.437
	c0-6.464-2.032-11.235-6.093-14.301c-4.068-3.074-10.128-4.609-18.191-4.609h-19.195V136.439z M625.492,155.829v40.315h25.819
	c7.424,0,13.083-1.614,16.988-4.847c3.904-3.23,5.856-8.014,5.856-14.348c0-6.85-1.664-12.08-4.994-15.696
	c-3.326-3.615-8.574-5.424-15.74-5.424H625.492z"/>
<path fill="#FF7B7B" stroke="#000000" stroke-miterlimit="10" d="M840.302,148.821c0,12.161-2.194,23.265-6.573,33.307
	c-4.388,10.052-10.515,18.241-18.384,24.573l29.755,18.526l-19.771,15.261l-33.499-22.555c-2.497,0.511-5.002,0.927-7.529,1.248
	c-2.533,0.318-5.041,0.478-7.537,0.478c-18.875,0-34.121-6.685-45.734-20.059c-11.614-13.377-17.422-30.299-17.422-50.78v-2.109
	c0-20.35,5.79-37.246,17.372-50.685c11.579-13.435,26.815-20.156,45.687-20.156c18.939,0,34.278,6.721,46.023,20.156
	c11.743,13.439,17.613,30.334,17.613,50.685V148.821z M812.371,146.517c0-14.459-3.008-26.203-9.023-35.224
	c-6.018-9.025-14.91-13.536-26.682-13.536c-11.772,0-20.549,4.479-26.345,13.437c-5.792,8.959-8.688,20.734-8.688,35.323v2.304
	c0,14.721,2.925,26.575,8.784,35.566c5.855,8.99,14.64,13.483,26.346,13.483c11.838,0,20.733-4.493,26.681-13.483
	c5.951-8.991,8.927-20.845,8.927-35.566V146.517z"/>
<polygon points="971.516,77.887 971.516,115.132 950.015,115.132 948.864,99.487 923.137,99.487 923.137,197.97 938.114,200.85 
	938.114,217.645 880.137,217.645 880.137,200.85 895.111,197.97 895.111,99.487 869.483,99.487 868.333,115.132 846.924,115.132 
	846.924,77.887 "/>
<path d="M977.179,200.85l13.436-2.883V133.56l-14.876-2.879v-16.895h40.983l1.248,15.167c2.436-5.375,5.567-9.565,9.405-12.576
	c3.841-3.009,8.286-4.512,13.342-4.512c1.475,0,3.028,0.117,4.658,0.339c1.632,0.225,2.99,0.495,4.078,0.813l-2.973,25.536
	l-11.522-0.29c-4.091,0-7.485,0.803-10.167,2.402c-2.694,1.596-4.739,3.872-6.15,6.812v50.489l13.439,2.883v16.795h-54.901V200.85z"
	/>
<path d="M1122.018,217.645c-0.762-1.727-1.436-3.5-2.016-5.326c-0.57-1.823-1.02-3.662-1.344-5.519
	c-3.324,3.837-7.374,6.943-12.139,9.311c-4.77,2.366-10.225,3.549-16.366,3.549c-10.175,0-18.253-2.766-24.238-8.301
	c-5.981-5.533-8.971-13.068-8.971-22.604c0-9.729,3.897-17.245,11.71-22.557c7.803-5.312,19.256-7.97,34.36-7.97h14.301v-10.173
	c0-4.994-1.435-8.866-4.318-11.614c-2.882-2.753-7.134-4.132-12.768-4.132c-3.197,0-6.046,0.372-8.542,1.108
	c-2.494,0.735-4.507,1.615-6.046,2.638l-1.823,11.136h-21.121l0.102-23.038c5.115-3.456,10.987-6.365,17.613-8.734
	c6.624-2.367,13.837-3.551,21.643-3.551c12.865,0,23.312,3.149,31.34,9.454c8.03,6.302,12.047,15.279,12.047,26.92v42.91
	c0,1.602,0.018,3.104,0.051,4.511c0.031,1.409,0.142,2.753,0.334,4.031l8.543,1.155v16.795H1122.018z M1097.738,198.93
	c4.226,0,8.059-0.915,11.515-2.738c3.455-1.824,6.142-4.11,8.062-6.86v-15.839h-14.301c-5.952,0-10.464,1.388-13.534,4.172
	c-3.071,2.786-4.605,6.132-4.605,10.033c0,3.521,1.135,6.271,3.408,8.257C1090.552,197.937,1093.703,198.93,1097.738,198.93"/>
<path d="M1212.632,198.158c4.993,0,8.987-1.453,11.999-4.366c3.007-2.913,4.512-6.798,4.512-11.664h25.339l0.287,0.582
	c0.258,10.493-3.677,19.273-11.807,26.343c-8.126,7.076-18.235,10.605-30.33,10.605c-15.486,0-27.419-4.893-35.804-14.683
	c-8.38-9.792-12.572-22.363-12.572-37.723v-2.881c0-15.293,4.303-27.867,12.91-37.725c8.608-9.851,20.879-14.782,36.811-14.782
	c8.38,0,15.896,1.251,22.557,3.744c6.652,2.495,12.189,6.016,16.604,10.561l0.388,27.74h-22.751l-4.607-16.222
	c-1.409-1.215-3.137-2.223-5.183-3.024c-2.051-0.797-4.385-1.198-7.008-1.198c-7.935,0-13.537,2.878-16.796,8.64
	c-3.263,5.757-4.901,13.181-4.901,22.268v2.881c0,9.277,1.507,16.749,4.512,22.414
	C1199.802,195.33,1205.081,198.158,1212.632,198.158"/>
<polygon points="1264.468,84.796 1264.468,67.907 1307.371,67.907 1307.371,154.676 1313.609,154.676 1329.738,131.928 
	1320.617,130.681 1320.617,113.786 1371.684,113.786 1371.684,130.681 1359.398,133.465 1340.682,159.19 1366.883,198.642 
	1377.537,200.85 1377.537,217.645 1329.547,217.645 1329.547,200.85 1335.306,199.89 1319.368,174.167 1307.371,174.167 
	1307.371,197.97 1319.465,200.85 1319.465,217.645 1265.902,217.645 1265.902,200.85 1279.44,197.97 1279.44,87.679 "/>
<path d="M1435.132,219.658c-14.979,0-26.946-4.797-35.904-14.395c-8.955-9.597-13.437-21.787-13.437-36.571v-3.839
	c0-15.421,4.24-28.124,12.721-38.108c8.478-9.981,19.852-14.94,34.123-14.876c14.014,0,24.89,4.221,32.634,12.669
	c7.745,8.446,11.614,19.868,11.614,34.268v15.262h-62.004l-0.191,0.576c0.511,6.851,2.793,12.477,6.859,16.893
	c4.066,4.415,9.584,6.622,16.559,6.622c6.203,0,11.357-0.62,15.454-1.868c4.091-1.248,8.577-3.217,13.437-5.906l7.582,17.28
	c-4.283,3.395-9.834,6.238-16.65,8.542C1451.113,218.51,1443.512,219.658,1435.132,219.658 M1432.635,133.465
	c-5.183,0-9.278,1.982-12.289,5.952c-3.008,3.969-4.861,9.181-5.568,15.646l0.289,0.477h34.365v-2.492
	c0-5.955-1.396-10.706-4.178-14.256C1442.472,135.242,1438.263,133.465,1432.635,133.465"/>
<path d="M1492.239,200.85l13.437-2.883V133.56l-14.877-2.879v-16.895h40.984l1.248,15.167c2.433-5.375,5.571-9.565,9.405-12.576
	c3.838-3.009,8.288-4.512,13.346-4.512c1.471,0,3.021,0.117,4.654,0.339c1.63,0.225,2.994,0.495,4.08,0.813l-2.976,25.536
	l-11.518-0.29c-4.098,0-7.484,0.803-10.174,2.402c-2.691,1.596-4.738,3.872-6.147,6.812v50.489l13.438,2.883v16.795h-54.901V200.85z
	"/>
</svg>
