<svg xmlns="http://www.w3.org/2000/svg" xmlns:xlink="http://www.w3.org/1999/xlink" version="1.1" x="0px" y="0px" viewBox="0 0 100 100" enable-background="new 0 0 100 100" xml:space="preserve"><path d="M89.1,28.6c-2-0.1-3.9-0.1-5.9-0.1c1.6-1.3,3.2-2.7,4.8-4c1.4-1.1-0.1-3.7-1.8-3c-2.6,1.1-5.2,2.2-7.8,3.5  c-2.4-2.3-5.5-3.8-9.5-4.3c0.3-0.4,0.6-0.8,1-1.1c1.9-1.8,5.1-2.3,5.6-5.1c0.1-0.6,0.1-1.3-0.5-1.8c-2.5-2-5.4-0.8-7.6,1  c-0.6,0.5-4.1,4.8-4.8,4.3c0.5,0.4,1.7-4.8,1.7-5.3c0-1.1-1.2-2.1-2.3-1.7c-4,1.3-5.1,4.5-4.9,8c-1.4-2.2-2.9-5.3-5.8-4.2  c-5.5,2.1,0.8,6.8,5.3,9.3c0,0,0.1,0.1,0.1,0.1c-4.5,5.1-6.3,13.9-8.7,18.4c-3.1,5.8-8.4,8.2-12.7,6.2c1.8-3.5,13.2-10.9,4.4-14.7  c-4.7-2-9.3,2-12.3,6.3c-0.9-3.7,6.8-7.7,7.2-11.2c0.6-4.5-4.5-6.3-8.1-5.6c-4.8,0.9-8.5,4.7-9.1,9.5c-0.5,3.2,0.3,6.1,1.7,8.8  c-1.7,0.1-3.3,0.5-4.9,1.3c-3.5,1.8-5.8,5.7-5.2,9.7c0.5,3.4,3.2,5.5,6.6,4.4c4.1-1.3,8.4-6.8,12.4-5.2c0.2,2.3,1.2,5.2,3.3,8.6  c5.6,9,10.3,11.8,21.2,12.5c0,3.9,0,7.9,0,11.8c0,2.3,3.6,2.3,3.6,0c0-3.9,0-7.8,0-11.7c1.1,0,2.2,0,3.4,0c0.7,0,1.5-0.1,2.2-0.1  c0,3.9,0,7.8,0,11.8c0,2.3,3.6,2.3,3.6,0c0-4.1,0-8.2,0-12.3C78,70.1,84.5,58.5,84.5,44.7c0-3.3-0.2-6.4-0.8-9.1  c2.1-1.3,4.2-2.5,6.3-3.7C91.6,31,90.9,28.6,89.1,28.6z M70.8,30.1c-1.2,0-2.3-1-2.3-2.3s1-2.3,2.3-2.3s2.3,1,2.3,2.3  S72.1,30.1,70.8,30.1z"></path></svg>