<svg xmlns="http://www.w3.org/2000/svg" data-name="Layer 1" viewBox="0 0 100 100" x="0px" y="0px"><title>cow</title><path d="M72.14,80.51a1.18,1.18,0,0,0,1.18,1.18h.44a1.18,1.18,0,0,0,1.18-1.18V79.13h-2.8Z"></path><path d="M77.46,80.51a1.18,1.18,0,0,0,1.18,1.18h.44a1.18,1.18,0,0,0,1.18-1.18V79.13h-2.8Z"></path><path d="M27.42,80.51a1.18,1.18,0,0,0,1.18,1.18H29a1.18,1.18,0,0,0,1.18-1.18V79.13h-2.8Z"></path><path d="M32.74,80.51a1.18,1.18,0,0,0,1.18,1.18h.44a1.18,1.18,0,0,0,1.18-1.18V79.13h-2.8Z"></path><circle cx="15.38" cy="27.1" r="1.24"></circle><circle cx="22.41" cy="27.1" r="1.24"></circle><path d="M18.36,69.65a1.48,1.48,0,0,0,1.48,1.48h7.59v7.12h2.8V71.13h2.51v7.12h2.8V71.13h36.6v7.12h2.8V71.13h2.51v7.12h2.8V71.13h7.48a1.48,1.48,0,0,0,1.48-1.48V60.74H18.36Z"></path><path d="M89.21,30.31V28.79a1.48,1.48,0,0,0-1.48-1.48H29.69A5.85,5.85,0,0,0,29,25.57a6.09,6.09,0,0,0-2.22-2.2l-2.92-5.06-2.21,3.83a15.18,15.18,0,0,0-1.53.08l-2.26-3.91-3,5.19h.17a22.51,22.51,0,0,0-2.95,1.43,19.6,19.6,0,0,0-7.22,6.92H1.48A1.48,1.48,0,0,0,0,33.33v4.9H14.17v1.6H0v.75a1.48,1.48,0,0,0,1.48,1.48H6.36c2.78,1.68,7.15,1.7,11.58,0h.41V59.27H89.21V55.58c-1.15-.7-2.53-2.47-5.31-3-4.71-1-7.87,2.58-9.6,1-1.21-1.08-.69-3.75.15-5.31,1.68-3.14,5.6-3.63,7.23-3.84,1.39-.17,4.92-.62,7.53,1V32.73H100V30.31ZM2,34.78a.86.86,0,1,1,.86-.86A.86.86,0,0,1,2,34.78Zm2.51,0a.86.86,0,1,1,.86-.86A.86.86,0,0,1,4.53,34.78ZM20,29.41a3.84,3.84,0,1,1,0-3.06,3.84,3.84,0,1,1,0,3.06ZM39.91,50.76c-.61,4.12-6,6.59-7.23,5.61s2.4-6.53.89-7.82c-1.9-1.63-9.13,5.88-11.51,4.13-1.45-1.07-.74-5.3,1.48-7.82,2.89-3.29,8.14-3.43,11.66-1.48C35.46,43.53,40.54,46.45,39.91,50.76Zm19.78-5.9c-.25,0-4.52.32-6.2-2.66C51.67,39,54.73,35.11,55,34.82c3-3.71,8.75-3.86,9.15-3,.3.67-2.43,1.68-2.36,3.54.08,2.19,3.94,2.62,4.13,4.72S62.88,44.58,59.69,44.85Z"></path></svg>