<svg xmlns="http://www.w3.org/2000/svg" xmlns:xlink="http://www.w3.org/1999/xlink" version="1.1" x="0px" y="0px" viewBox="0 0 100 100" style="enable-background:new 0 0 100 100;" xml:space="preserve"><path d="M94.3,36c-0.5-0.8-1-1-1.8-1.3c0.3-0.3,0.6-0.8,0.7-1.5c0.3-1.7-1.2-2.7-2.8-2.1c-1.2,0.5-1.8,1.9-1.5,3.1  c-0.3,0.1-0.2,0.1-0.5,0.2c-0.5-0.8-1.1-1.6-1.8-2.3c-7.1-7.7-11.7-3.7-40.2-5c-21-1-27.9,2.1-31.2,5.9c-1.2-0.8-2.7-2.1-3.6-2.3  c-1-0.2-1.3,0.2,0,1.2c1.3,1,2.3,3.1,2.3,3.1c-0.2,0.3-0.3,0.6-0.5,0.9c0,0-3-1.4-3.7-2.8c-0.7-1.4-1.3-1.3-1.3-0.2  c-0.1,2.8,1.7,4.8,3.4,6.1c-0.8,1.7-0.5,1.2-1.5,3.6c-1.7,0-2.6,0.4-3.9-0.3c-1.4-0.9-1.9,0-1.3,3.8s1.8,3.7,4.2,4.3  c2.3,0.6,1.5-0.3,4.6,2.8c3.1,3,14.2,6.7,16.8,7.6c0.6,1.8,1.4,4.7,1.4,5.2c0.1,0.7-0.3,1.4-0.8,1.7c-1.8,1.2-0.6,1.7-0.1,1.7  c0,0.6,0.7,1,1.2,0.9c0.7-0.1,1.2-0.9,1.4-1.5s0.6-1.4,0.8-2.3s-0.2-3.4-0.1-4.6c0.3,0.1,0.7,0.2,1,0.3c1.2,0.8,1.9,2.1,1.7,3.5  c-0.3,2-0.3,3.2-0.5,3.9s-1.9,1.2-2.4,2s0.9,1.1,0.9,1.1s0.3,1.3,2,0.8c1-0.3,1.9-2.5,2.5-4.2s1.3-5.2,1.6-5.8  c3.3,0.1,30.4,0,32.1-0.3c0.4,1.2,0.8,2.4,0.9,2.9c0.1,0.7-0.3,1.4-0.8,1.7c-2.1,1.5-0.2,1.7-0.2,1.7s0.3,1,1.3,0.9  c0.7-0.1,1-0.6,1.4-1.5c0.3-1,0.7-1.4,0.8-2.3s-0.2-2.9-0.1-4.1c0.3-0.1,0.6-0.2,1-0.3c1.3,0.9,1.6,2,1.4,3.4c-0.3,2-0.3,3-0.5,3.9  s-1.6,1.4-2.1,2.2c-0.5,0.8,0.7,0.9,0.7,0.9c-0.1,0,0.6,1.2,1.8,0.8c1.2-0.3,2-3.5,2.4-4.2s1.7-6.3,1.9-7.7s2.8-2.9,5-6.3  c2.2-3.4,3.4-14.4,0.8-19.2c0.4-0.1,0.3-0.1,0.7-0.2c1.4,0.2,2.6,1.1,3,1.6c1.1,1.1,0.6,3-0.2,3.9c-0.6,0.7-0.5,0.9,0.5,0.3  C94.7,40.5,95.8,38,94.3,36z M16.4,45.1c-1.4,0-2.6-1.2-2.6-2.6c0-1.4,1.2-2.6,2.6-2.6s2.6,1.2,2.6,2.6C19,43.9,17.8,45.1,16.4,45.1  z M90.6,33.7c-0.2-0.7,0.7-1.4,1.1-1C92,33.1,91.4,33.7,90.6,33.7z"></path></svg>