<?xml version="1.0" encoding="utf-8"?>
<!-- Generator: Adobe Illustrator 15.0.2, SVG Export Plug-In . SVG Version: 6.00 Build 0)  -->
<!DOCTYPE svg PUBLIC "-//W3C//DTD SVG 1.1//EN" "http://www.w3.org/Graphics/SVG/1.1/DTD/svg11.dtd">
<svg version="1.1" id="Calque_1" xmlns="http://www.w3.org/2000/svg" xmlns:xlink="http://www.w3.org/1999/xlink" x="0px" y="0px"
	 width="841.89px" height="714.072px" viewBox="0 0 841.89 714.072" enable-background="new 0 0 841.89 714.072"
	 xml:space="preserve">
<circle cx="422.553" cy="366.718" r="257.826"/>
<g>
	<defs>
		<circle id="SVGID_1_" cx="422.553" cy="367.718" r="254.066"/>
	</defs>
	<use xlink:href="#SVGID_1_"  overflow="visible" fill="#422C0A"/>
	<clipPath id="SVGID_2_">
		<use xlink:href="#SVGID_1_"  overflow="visible"/>
	</clipPath>
	
		<radialGradient id="SVGID_3_" cx="424.4814" cy="5138.3193" r="240.7206" gradientTransform="matrix(1 0 0 1 0 -4759.2734)" gradientUnits="userSpaceOnUse">
		<stop  offset="0" style="stop-color:#FFF29A"/>
		<stop  offset="1" style="stop-color:#422C0A"/>
	</radialGradient>
	<path clip-path="url(#SVGID_2_)" fill-rule="evenodd" clip-rule="evenodd" fill="url(#SVGID_3_)" d="M424.482,87.184
		c-159.036,0-288.458,130.924-288.458,291.863c0,160.938,129.422,291.86,288.458,291.86c159.035,0,288.456-130.922,288.456-291.86
		C712.938,218.108,583.518,87.184,424.482,87.184z M612.64,586.864L444.307,403.001l149.741,199.703
		c-6.467,5.017-13.089,9.78-19.95,14.221L439.811,406.177l113.293,223.134c-7.234,3.797-14.563,7.376-22.135,10.558l-96.146-231.321
		l73.269,239.807c-7.693,2.462-15.606,4.458-23.61,6.246l-54.954-244.621L460.5,658.71c-8.004,1.06-16.102,1.688-24.29,2.026
		l-12.161-250.26l-12.221,250.212c-8.19-0.372-16.286-1.026-24.258-2.119l31.001-248.591l-54.953,244.389
		c-8.005-1.807-15.885-3.831-23.581-6.323l73.237-239.497l-96.08,231.022c-7.543-3.193-14.839-6.79-22.013-10.607l113.104-222.785
		L274.251,616.536c-6.866-4.456-13.486-9.239-19.921-14.285l149.402-199.25L235.86,586.427c-6.003-5.574-11.73-11.397-17.209-17.488
		l181.201-169.863L203.104,550.138c-4.924-6.51-9.605-13.223-13.974-20.169l207.582-135.441L176.968,508.726
		c-3.756-7.272-7.268-14.688-10.375-22.321l227.781-96.922l-236.122,73.903c-2.435-7.786-4.374-15.792-6.13-23.863l240.836-55.4
		l-244.867,31.242c-1.047-8.079-1.662-16.256-2.002-24.541l246.437-12.244l-246.497-12.29c0.4-8.27,1.106-16.447,2.153-24.514
		l244.776,31.229L152.432,317.68c1.816-8.051,3.909-15.965,6.372-23.751l235.57,73.716l-227.226-96.689
		c3.139-7.601,6.557-15.029,10.343-22.29l219.221,113.965l-207.09-135.113c4.372-6.932,8.988-13.69,13.945-20.184L399.853,358.05
		l-180.74-169.409c5.481-6.058,11.36-11.757,17.331-17.321l167.29,182.807L254.945,155.701c6.437-5.015,13.086-9.687,19.92-14.143
		l133.422,209.392l-112.55-221.696c7.143-3.814,14.438-7.369,21.95-10.545l95.588,229.875l-72.932-238.471
		c7.667-2.492,15.485-4.705,23.461-6.51l54.767,243.547L387.693,99.49c7.941-1.075,16.039-1.682,24.198-2.058l12.158,249.248
		l12.1-249.341c8.189,0.345,16.255,0.968,24.229,2.026l-30.85,247.784l54.738-243.705c7.975,1.777,15.887,3.754,23.583,6.202
		l-73.025,238.937l95.806-230.48c7.543,3.146,14.869,6.711,22.073,10.497l-112.892,222.35l133.825-210.046
		c6.864,4.409,13.515,9.146,19.945,14.145l-149.274,199.08l167.841-183.348c6.003,5.559,11.763,11.353,17.272,17.396L448.186,358.05
		l196.902-151.169c4.959,6.509,9.666,13.192,14.101,20.136L451.324,362.631l220.117-114.43c3.787,7.271,7.356,14.672,10.496,22.301
		l-228.271,97.142l236.646-74.044c2.461,7.805,4.463,15.796,6.248,23.861l-241.477,55.542l245.633-31.336
		c1.08,8.082,1.724,16.289,2.097,24.593l-247.237,12.318l247.297,12.289c-0.338,8.302-0.986,16.509-2,24.625l-245.789-31.371
		l241.725,55.588c-1.757,8.098-3.757,16.122-6.188,23.939l-236.955-74.167l228.578,97.266c-3.138,7.648-6.648,15.076-10.434,22.367
		L451.324,394.527l208.264,135.876c-4.404,6.947-9.114,13.661-14.068,20.188L448.186,399.075l181.695,170.33
		C624.4,575.48,618.643,581.289,612.64,586.864z"/>
</g>
<path fill="#422C0A" d="M422.553,112.593c-139.297,0-252.624,114.449-252.624,255.125c0,140.677,113.327,255.126,252.624,255.126
	c139.297,0,252.623-114.449,252.623-255.126C675.176,227.042,561.85,112.593,422.553,112.593z M422.553,570.972
	c-112.252,0-203.253-90.999-203.253-203.254c0-112.252,91-203.252,203.253-203.252c112.254,0,203.252,91,203.252,203.252
	C625.805,479.973,534.807,570.972,422.553,570.972z"/>
<g>
	<path fill="#754C24" d="M168.428,367.717c0.002-141.496,113.984-256.62,254.124-256.624l0,0
		c140.14,0.004,254.121,115.128,254.124,256.624l0,0c-0.003,141.497-113.984,256.621-254.124,256.627l0,0v-1.5v-1.502
		c69.233,0,132.002-28.437,177.481-74.363l0,0c45.477-45.93,73.642-109.33,73.642-179.262l0,0c0-69.93-28.165-133.331-73.642-179.26
		l0,0c-45.479-45.927-108.248-74.363-177.481-74.363l0,0c-69.233,0-132.002,28.436-177.483,74.363l0,0
		c-45.477,45.929-73.64,109.33-73.64,179.26l0,0c0,69.932,28.163,133.332,73.64,179.262l0,0
		c45.481,45.927,108.25,74.363,177.483,74.363l0,0v1.502v1.5C282.413,624.338,168.43,509.214,168.428,367.717L168.428,367.717z"/>
</g>
<g>
	<path fill="#68563B" d="M422.553,572.472c-112.901,0-204.753-91.853-204.753-204.754c0-112.901,91.852-204.752,204.753-204.752
		c112.9,0,204.752,91.852,204.752,204.752C627.305,480.619,535.453,572.472,422.553,572.472L422.553,572.472z M422.553,165.965
		c-111.247,0-201.753,90.506-201.753,201.752c0,111.247,90.506,201.754,201.753,201.754c111.246,0,201.752-90.507,201.752-201.754
		C624.305,256.471,533.799,165.965,422.553,165.965L422.553,165.965z"/>
</g>
<g>
	<defs>
		<path id="SVGID_4_" d="M736.752,237.246c0,179.285-145.338,324.623-324.623,324.623c-179.284,0-324.623-145.338-324.623-324.623
			c0-179.284,145.339-181.623,324.623-181.623C591.414,55.623,736.752,57.962,736.752,237.246z"/>
	</defs>
	<clipPath id="SVGID_5_">
		<use xlink:href="#SVGID_4_"  overflow="visible"/>
	</clipPath>
	<path clip-path="url(#SVGID_5_)" d="M410.6,863.373c-20.625,0-43.2-3.152-65.331-9.117c-0.605,0.021-1.206,0.033-1.805,0.033
		c-19.374,0-35.373-11.408-38.825-14.057c-0.368-0.23-1.05-0.66-2.003-1.268c-28.897-13.141-53.325-30.281-72.615-50.955
		c-4.997-3.9-9.743-7.725-14.147-11.402c-5.985,3.77-12.035,5.676-18.024,5.676c-4.933,0-9.842-1.297-14.591-3.854
		c-1.008-0.545-1.99-1.201-2.936-1.965c-0.762,0.082-1.52,0.123-2.267,0.123c-3.831,0-7.479-1.09-10.55-3.152
		c-7.613-5.088-14.958-19.645-8.666-29.979l7.263,4.424c-1.127,1.85,1.23,7.424,4.333,11.553c-0.033-0.15-0.065-0.301-0.096-0.453
		c-1.567-7.633-0.268-14.555,3.658-19.492c0.889-1.117,1.889-2.129,2.977-3.02c-29.334-36.387-42.073-73.65-37.863-110.789
		c6.31-55.666,49.075-99.668,84.191-126.959c8.304-17.318,17.575-33.055,27.591-46.83c-17.314-20.355-20.875-44.74-10.271-70.74
		c16.906-41.444,32.634-74.56,52.351-98.32c-14.217,2.542-27.335,3.826-39.131,3.826c-32.35,0-55.874-9.521-69.917-28.299
		c-24.896-33.289-10.646-83.009-10.028-85.109l0.898-3.05h3.18c54.232,0,92.922,18.035,118.552,36.903
		c-8.59-17.954-18.095-37.349-27.871-55.961l-0.826-1.571l0.537-1.692c0.139-0.439,0.725-2.053,2.451-4.525
		c1.275-1.951,2.69-3.634,4.209-5.006c6.87-7.035,17.263-13.725,30.894-19.888c13.458-6.084,25.392-9.169,35.469-9.169
		c1.364,0,2.696,0.06,3.961,0.177c1.86,0.078,3.738,0.415,5.584,1.003c1.738,0.496,2.715,0.99,2.976,1.132l1.531,0.83l1.67,5.316
		c8.194,25.591,17.693,51.86,26.781,76.701c0.41,0.461,0.739,0.979,0.977,1.539l7.595,17.881
		c12.007-13.445,26.139-24.642,42.091-33.337c24.942-13.596,53.535-20.49,84.984-20.49h3.18l0.898,3.049
		c0.518,1.754,12.439,43.302-7.38,72.384c-8.566,12.57-21.67,20.772-39.053,24.473c17.192,10.999,32.684,25.715,46.176,43.885
		c23.877,11.524,38.095,31.014,38.095,52.312c0,6.093-1.177,12.115-3.499,17.919c0.732,2.568,1.415,5.148,2.033,7.688
		c10.359,42.578-7.877,77.74-51.41,99.607c28.864,24.148,52.998,36.873,70.025,36.871c8.082,0,14.439-2.816,19.435-8.607
		c14.244-16.514,16.89-55.756,7.861-116.635l-0.041-0.279l-0.005-0.281c-0.626-42.083,2.918-55.483,5.604-60.296
		c-9.174-20.754-17.231-39.834-22.786-53.962c-1.207-2.589-2.547-3.663-3.405-3.824c-0.229,0.011-0.461,0.017-0.691,0.017v-1.28
		l-0.029-0.075l0.001,1.355c-17.352,0-33.482-25.192-47.953-74.877l7.782-3.283c0.093,0.164,5.23,9.237,11.337,19.845l-7.441-19.899
		l7.701-3.55l7.846,14.159l-5.713-15.274l7.702-3.55l7.731,13.957c-3.523-9.221-6.295-16.354-6.354-16.504l7.466-3.95
		c29.295,42.591,38.611,71.007,27.689,84.457l-1.35-1.096l0.919,1.649c0,0,0.102-0.058,0.229-0.207
		c-0.417,0.491-0.776,2.255,0.814,5.431l1.188,2.116l0.004,0.017c10.068,18.116,24.094,45.137,36.521,70.324
		c1.331-0.835,2.684-1.256,4.05-1.256c1.297,0,2.221,0.402,2.655,0.642l0.912,0.501l0.577,0.865
		c6.229,9.344,8.86,20.385,7.828,32.838c9.321,20.604,10.167,25.697,8.521,29.184c-1.221,2.582-3.55,3.205-4.669,3.504
		c-0.146,0.039-0.3,0.072-0.445,0.129c-0.073,0.047-0.194,0.145-0.316,0.232c-0.765,0.553-2.188,1.58-4.211,1.58h-0.001
		c-1.669,0-3.164-0.582-4.766-2.035c0.889,27.643,0.677,105.639-27.91,136.182c-7.937,8.479-17.496,12.777-28.414,12.777
		c-13.052,0-28.156-6.293-44.895-18.707c-0.989-0.631-6.673-4.287-15.756-10.77c11.153,18.354,24.341,43.943,33.62,74.264
		c16.343,53.395,16.099,105.395-0.727,154.555l-0.5,1.465l-1.325,0.799c-0.156,0.096-1.412,0.842-3.958,2.072
		c-22.438,57.84-68.714,93.121-130.485,99.424l-0.75,0.072c-2.047,0.201-3.932,0.357-5.762,0.48l-0.316,0.025
		c-1.819,0.119-3.731,0.213-5.848,0.289l-1.289,0.041C414.246,863.342,412.375,863.373,410.6,863.373L410.6,863.373z
		 M200.966,763.518c-1.516,2.133-3.328,4.127-5.342,5.871c2.633-0.057,5.524-0.961,8.75-2.746
		C203.207,765.588,202.07,764.545,200.966,763.518L200.966,763.518z M184.32,746.215c-0.278,0.262-0.541,0.547-0.785,0.854
		c-1.598,2.002-2.068,5.539-1.263,9.463c0.427,2.076,1.178,4.131,2.151,5.943c0.5-0.287,1-0.602,1.495-0.947
		c2.669-1.84,4.835-4.184,6.201-6.66C189.2,751.852,186.591,748.955,184.32,746.215L184.32,746.215z"/>
</g>
<g>
	<defs>
		<path id="SVGID_6_" d="M734.736,235.444c0,179.285-145.338,324.623-324.623,324.623c-179.284,0-324.623-145.338-324.623-324.623
			c0-179.284,145.339-191.623,324.623-191.623C589.398,43.821,734.736,56.16,734.736,235.444z"/>
	</defs>
	<clipPath id="SVGID_7_">
		<use xlink:href="#SVGID_6_"  overflow="visible"/>
	</clipPath>
	<g clip-path="url(#SVGID_7_)">
		<g>
			
				<linearGradient id="SVGID_8_" gradientUnits="userSpaceOnUse" x1="-947.8325" y1="390.4453" x2="-893.5396" y2="390.4453" gradientTransform="matrix(0.8824 0.4705 -0.4705 0.8824 1306.2188 218.5038)">
				<stop  offset="0" style="stop-color:#E6E6E6"/>
				<stop  offset="0.3697" style="stop-color:#FFFFFF"/>
				<stop  offset="0.9758" style="stop-color:#EBEBEB"/>
			</linearGradient>
			<path fill="url(#SVGID_8_)" d="M349.872,112.958c0,0-12.978-7.126-44.212,6.994c-31.236,14.121-35.253,26.83-35.253,26.83
				L349.872,112.958z"/>
			
				<linearGradient id="SVGID_9_" gradientUnits="userSpaceOnUse" x1="1728.8701" y1="-722.7812" x2="1750.9854" y2="-722.7812" gradientTransform="matrix(-0.9392 0.3434 0.3434 0.9392 2237.134 239.9557)">
				<stop  offset="0" style="stop-color:#E6E6E6"/>
				<stop  offset="0.3697" style="stop-color:#FFFFFF"/>
				<stop  offset="0.9758" style="stop-color:#EBEBEB"/>
			</linearGradient>
			<path fill="url(#SVGID_9_)" d="M349.872,112.958c0.249,0.416-11.623-6.896-21.218,6.366
				c11.486,29.641,22.494,58.824,32.014,87.382c7.368-0.166,14.06-1.969,20.021-5.525
				C369.662,171.099,358.906,141.544,349.872,112.958z"/>
			
				<linearGradient id="SVGID_10_" gradientUnits="userSpaceOnUse" x1="1698.748" y1="-778.2324" x2="1720.8633" y2="-778.2324" gradientTransform="matrix(-0.9204 0.3909 0.3909 0.9204 2214.3289 213.059)">
				<stop  offset="0" style="stop-color:#E6E6E6"/>
				<stop  offset="0.3697" style="stop-color:#FFFFFF"/>
				<stop  offset="0.9758" style="stop-color:#EBEBEB"/>
			</linearGradient>
			<path fill="url(#SVGID_10_)" d="M329.183,119.825c0.272,0.468-12.272-7.429-20.299,8.619
				c12.578,27.888,24.516,56.048,35.813,84.481c7.481,0.011,13.895-2.495,19.242-7.513
				C351.652,176.769,339.968,148.253,329.183,119.825z"/>
			
				<linearGradient id="SVGID_11_" gradientUnits="userSpaceOnUse" x1="1719.3936" y1="-777.3945" x2="1741.5088" y2="-777.3945" gradientTransform="matrix(-0.9204 0.3909 0.3909 0.9204 2214.3289 213.059)">
				<stop  offset="0" style="stop-color:#E6E6E6"/>
				<stop  offset="0.3697" style="stop-color:#FFFFFF"/>
				<stop  offset="0.9758" style="stop-color:#EBEBEB"/>
			</linearGradient>
			<path fill="url(#SVGID_11_)" d="M310.181,127.895c0.274,0.47-12.4-7.908-20.427,8.141c12.579,27.887,24.642,56.529,35.94,84.958
				c7.482,0.013,21.858-0.661,19.242-7.511C332.656,181.358,320.967,156.323,310.181,127.895z"/>
			
				<linearGradient id="SVGID_12_" gradientUnits="userSpaceOnUse" x1="1680.4316" y1="-834.4824" x2="1702.71" y2="-834.4824" gradientTransform="matrix(-0.8972 0.4417 0.4417 0.8972 2186.1731 183.4059)">
				<stop  offset="0" style="stop-color:#E6E6E6"/>
				<stop  offset="0.3697" style="stop-color:#FFFFFF"/>
				<stop  offset="0.9758" style="stop-color:#EBEBEB"/>
			</linearGradient>
			<path fill="url(#SVGID_12_)" d="M289.754,136.035c0.178,0.234-11.716-5.15-19.348,10.747
				c13.975,26.605,27.458,54.87,41.038,83.751c6.771-1.648,12.723-5.194,17.902-10.501
				C315.721,193.079,302.682,164.881,289.754,136.035z"/>
			
				<linearGradient id="SVGID_13_" gradientUnits="userSpaceOnUse" x1="1682.4346" y1="-715.1016" x2="1758.7148" y2="-715.1016" gradientTransform="matrix(-0.9204 0.3909 0.3909 0.9204 2214.3289 213.059)">
				<stop  offset="0" style="stop-color:#E6E6E6"/>
				<stop  offset="0.303" style="stop-color:#FFFFFF"/>
				<stop  offset="0.9758" style="stop-color:#EBEBEB"/>
			</linearGradient>
			<path fill="url(#SVGID_13_)" d="M325.553,264.673c-2.243-5.279,67.513-36.154,70.207-29.818
				c2.691,6.333-13.455-31.672-16.816-39.589c-3.361-7.918-73.345,22.426-70.203,29.818
				C311.875,232.472,327.793,269.95,325.553,264.673z"/>
		</g>
		<path fill="#F0C0AC" d="M448.653,436.59l8.49,0.507c0,0,189.825,215.031,150.952-47.115l36.005,8.477
			c0,0,14.357,216.819-94.118,136.216c0,0-59.424-37.623-118.73-100.798L448.653,436.59z"/>
		<path fill="#F0C0AC" d="M570.101,668.809c0,128.478-72.313,187.931-161.517,187.931c-89.202,0-222.465-59.453-222.465-187.931
			c0-128.475,72.311-277.322,161.516-277.322C436.837,391.486,570.101,540.334,570.101,668.809z"/>
		
			<linearGradient id="SVGID_14_" gradientUnits="userSpaceOnUse" x1="-989.8691" y1="643.1797" x2="-692.1221" y2="643.1797" gradientTransform="matrix(1 0 0 1 1265.3477 0)">
			<stop  offset="0" style="stop-color:#FFFFFF"/>
			<stop  offset="1" style="stop-color:#F2F2F2"/>
		</linearGradient>
		<path fill="url(#SVGID_14_)" d="M275.479,514.723c0,0,138.754,21.645,229.916-17.587c0,0,102.801,118.897,55.292,257.716
			c0,0-58.943,35.708-240.885,34.333C319.802,789.185,331.987,658.19,275.479,514.723z"/>
		<g>
			<path fill="#E4AB92" d="M420.074,416.786c-25.05-15.983-50.121-25.3-72.439-25.3c-0.553,0-1.101,0.035-1.654,0.045
				C368.791,393.334,394.354,402.369,420.074,416.786z"/>
			<path fill="#E4AB92" d="M451.331,843.998c-88.308,12.614-228.639-27.398-246.807-154.583
				c-8.896-62.283-1.305-131.847,19.118-188.118c-23.421,50.105-37.524,110.794-37.524,167.512
				c0,128.478,133.263,187.931,222.465,187.931c34.542,0,66.521-8.959,92.784-27.343
				C486.027,836.583,469.194,841.445,451.331,843.998z"/>
		</g>
		<g>
			<path fill="#E4AB92" d="M219.404,764.546c-12.302,11.457-24.414,14.074-36.146,7.759c-1.27-0.687-2.487-1.61-3.625-2.728
				c-4.286,0.885-8.388,0.22-11.773-2.054c-6.438-4.303-12.179-16.396-7.404-24.236l0,0c-3.454,5.671,4.218,17.687,9.447,21.188
				c2.013,1.348,4.403,1.932,6.971,1.767c-2.03-2.972-3.585-6.62-4.385-10.501c-1.31-6.378-0.305-12.057,2.822-15.989
				c3.595-4.51,9.123-6.568,14.44-5.371c4.794,1.081,8.334,4.659,9.473,9.575c1.959,8.434-4.229,17.163-10.805,21.704
				c-1.547,1.07-3.112,1.94-4.676,2.61c0.41,0.303,0.83,0.565,1.256,0.798c9.585,5.158,18.821,0.746,29.209-8.098
				c-0.229-0.083-0.461-0.173-0.693-0.269C220.156,763.43,221.506,764.259,219.404,764.546z M180.847,765.441
				c1.816-0.606,3.664-1.539,5.482-2.804c6.833-4.712,10.664-12.054,9.319-17.854c-0.828-3.56-3.271-6.048-6.707-6.819
				c-3.929-0.887-8.046,0.673-10.751,4.077c-2.408,3.019-3.17,7.745-2.1,12.963C176.906,758.966,178.649,762.69,180.847,765.441
				L180.847,765.441z"/>
		</g>
		<g>
			<path fill="#F2F2F2" d="M319.824,725.89c-0.767-0.134-77.147-14.076-134.666-70.27l0.961-2.987
				c56.888,55.577,133.425,70.417,134.18,70.55L319.824,725.89L319.824,725.89z"/>
		</g>
		<g>
			<path fill="#E6E6E6" d="M344.938,777.148h-0.988v-2.751h0.988c1.396,0,2.9-0.002,4.508-0.013l0.018,2.751
				C347.849,777.145,346.34,777.148,344.938,777.148L344.938,777.148z M338.437,777.116c-3.036-0.028-4.92-0.067-5.473-0.084
				l0.06-2.747c0.549,0.014,2.421,0.055,5.438,0.083L338.437,777.116L338.437,777.116z M354.981,777.088l-0.037-2.748l5.504-0.079
				l0.042,2.746L354.981,777.088L354.981,777.088z M366.004,776.896l-0.06-2.751c1.774-0.039,3.606-0.088,5.496-0.14l0.076,2.747
				C369.624,776.808,367.787,776.856,366.004,776.896L366.004,776.896z M377.025,776.58l-0.092-2.75l5.493-0.203l0.108,2.748
				L377.025,776.58L377.025,776.58z M388.038,776.143l-0.122-2.744c1.799-0.081,3.629-0.164,5.488-0.262l0.146,2.743
				C391.681,775.977,389.845,776.063,388.038,776.143L388.038,776.143z M399.052,775.588l-0.157-2.746l5.488-0.32l0.168,2.743
				L399.052,775.588L399.052,775.588z M410.049,774.915l-0.184-2.746c1.809-0.12,3.636-0.251,5.481-0.383l0.197,2.744
				C413.695,774.663,411.862,774.791,410.049,774.915L410.049,774.915z M421.043,774.113l-0.217-2.738
				c1.812-0.144,3.635-0.291,5.476-0.448l0.237,2.738C424.691,773.823,422.859,773.97,421.043,774.113L421.043,774.113z
				 M432.025,773.188l-0.249-2.737c1.812-0.166,3.636-0.339,5.471-0.515l0.265,2.74C435.67,772.851,433.842,773.022,432.025,773.188
				L432.025,773.188z M442.996,772.123l-0.283-2.737c1.81-0.187,3.634-0.38,5.462-0.58l0.302,2.732
				C446.642,771.74,444.813,771.935,442.996,772.123L442.996,772.123z M453.954,770.92l-0.321-2.736
				c1.813-0.208,3.63-0.428,5.455-0.653l0.337,2.728C457.596,770.482,455.768,770.703,453.954,770.92L453.954,770.92z
				 M334.706,770.424l-2.74-0.229c0.155-1.807,0.286-3.623,0.401-5.455l2.745,0.173
				C334.993,766.766,334.858,768.604,334.706,770.424L334.706,770.424z M464.892,769.562l-0.361-2.728
				c1.814-0.237,3.629-0.48,5.448-0.733l0.375,2.722C468.529,769.076,466.711,769.318,464.892,769.562L464.892,769.562z
				 M475.813,768.046l-0.402-2.724c1.806-0.262,3.608-0.536,5.421-0.815l0.417,2.717
				C479.436,767.504,477.622,767.778,475.813,768.046L475.813,768.046z M486.684,766.36l-0.44-2.715
				c1.802-0.294,3.604-0.598,5.407-0.907l0.468,2.711C490.311,765.76,488.496,766.063,486.684,766.36L486.684,766.36z
				 M497.552,764.486l-0.493-2.706c1.804-0.324,3.603-0.661,5.399-1.004l0.52,2.701C501.171,763.82,499.36,764.157,497.552,764.486
				L497.552,764.486z M508.397,762.409l-0.545-2.695c1.801-0.366,3.598-0.737,5.386-1.118l0.577,2.691
				C512.009,761.668,510.206,762.043,508.397,762.409L508.397,762.409z M519.207,760.111l-0.608-2.682
				c1.788-0.401,3.571-0.811,5.354-1.229l0.625,2.675C522.792,759.298,521,759.707,519.207,760.111L519.207,760.111z
				 M335.406,759.396l-2.747-0.121c0.078-1.812,0.138-3.638,0.187-5.47l2.748,0.068
				C335.546,755.723,335.484,757.563,335.406,759.396L335.406,759.396z M529.94,757.576l-0.66-2.67
				c1.778-0.438,3.55-0.893,5.311-1.354l0.7,2.656C533.518,756.676,531.73,757.129,529.94,757.576L529.94,757.576z M540.619,754.771
				l-0.732-2.649c1.767-0.491,3.523-0.988,5.274-1.5l0.766,2.638C544.171,753.773,542.399,754.281,540.619,754.771L540.619,754.771z
				 M551.218,751.673l-0.812-2.628c1.752-0.54,3.496-1.093,5.221-1.662l0.854,2.616C554.74,750.565,552.985,751.126,551.218,751.673
				L551.218,751.673z M335.679,748.351l-2.748-0.021l0.011-2.568l-0.011-2.91l2.748-0.024l0.011,2.935L335.679,748.351
				L335.679,748.351z M560.385,745.308l-2.75-0.052c0.026-1.324,0.052-3.161,0.056-5.475l2.746,0.004
				C560.435,742.12,560.412,743.977,560.385,745.308L560.385,745.308z M332.841,737.374c-0.042-1.822-0.097-3.646-0.168-5.479
				l2.749-0.102c0.07,1.844,0.127,3.683,0.167,5.516L332.841,737.374L332.841,737.374z M557.664,734.29
				c-0.019-1.694-0.048-3.525-0.094-5.497l2.751-0.059c0.044,1.98,0.074,3.824,0.093,5.521L557.664,734.29L557.664,734.29z
				 M332.43,726.416c-0.093-1.823-0.197-3.648-0.314-5.476l2.743-0.177c0.12,1.843,0.224,3.679,0.318,5.512L332.43,726.416
				L332.43,726.416z M557.421,723.305c-0.057-1.749-0.125-3.58-0.209-5.487l2.749-0.119c0.08,1.92,0.15,3.762,0.208,5.517
				L557.421,723.305L557.421,723.305z M331.733,715.466c-0.138-1.817-0.285-3.64-0.445-5.471l2.737-0.237
				c0.162,1.836,0.313,3.668,0.452,5.499L331.733,715.466L331.733,715.466z M556.953,712.331c-0.09-1.775-0.192-3.601-0.312-5.485
				l2.744-0.164c0.119,1.887,0.221,3.726,0.315,5.507L556.953,712.331L556.953,712.331z M330.782,704.53
				c-0.175-1.812-0.363-3.638-0.564-5.456l2.735-0.295c0.199,1.828,0.387,3.659,0.566,5.485L330.782,704.53L330.782,704.53z
				 M556.28,701.367c-0.128-1.781-0.261-3.608-0.412-5.472l2.74-0.222c0.147,1.873,0.29,3.708,0.412,5.501L556.28,701.367
				L556.28,701.367z M329.601,693.604c-0.216-1.819-0.44-3.638-0.67-5.456l2.727-0.351c0.229,1.828,0.457,3.656,0.674,5.482
				L329.601,693.604L329.601,693.604z M555.412,690.423c-0.163-1.793-0.327-3.614-0.509-5.468l2.736-0.269
				c0.181,1.863,0.35,3.693,0.512,5.492L555.412,690.423L555.412,690.423z M328.211,682.703c-0.248-1.813-0.507-3.623-0.768-5.433
				l2.721-0.397c0.265,1.816,0.52,3.636,0.768,5.459L328.211,682.703L328.211,682.703z M554.347,679.489
				c-0.19-1.792-0.396-3.613-0.605-5.456l2.728-0.315c0.216,1.854,0.42,3.68,0.61,5.483L554.347,679.489L554.347,679.489z
				 M326.631,671.848c-0.279-1.809-0.563-3.61-0.852-5.408l2.71-0.44c0.293,1.802,0.58,3.617,0.859,5.428L326.631,671.848
				L326.631,671.848z M553.086,668.585c-0.224-1.795-0.457-3.612-0.702-5.443l2.727-0.367c0.24,1.844,0.479,3.669,0.703,5.471
				L553.086,668.585L553.086,668.585z M324.878,661.02c-0.305-1.809-0.622-3.615-0.938-5.412l2.708-0.479
				c0.318,1.804,0.634,3.616,0.942,5.431L324.878,661.02L324.878,661.02z M551.63,657.703c-0.252-1.797-0.52-3.604-0.798-5.432
				l2.717-0.412c0.28,1.829,0.548,3.65,0.806,5.457L551.63,657.703L551.63,657.703z M322.957,650.205
				c-0.331-1.809-0.671-3.609-1.015-5.398l2.703-0.518c0.343,1.798,0.685,3.601,1.019,5.417L322.957,650.205L322.957,650.205z
				 M549.98,646.852c-0.287-1.793-0.589-3.6-0.9-5.413l2.706-0.468c0.315,1.824,0.617,3.641,0.909,5.439L549.98,646.852
				L549.98,646.852z M320.89,639.413c-0.359-1.804-0.719-3.602-1.09-5.386l2.696-0.555c0.366,1.792,0.73,3.595,1.09,5.404
				L320.89,639.413L320.89,639.413z M548.125,636.032c-0.324-1.789-0.657-3.586-1.005-5.396l2.701-0.516
				c0.347,1.812,0.682,3.625,1.011,5.421L548.125,636.032L548.125,636.032z M318.678,628.648c-0.381-1.804-0.768-3.597-1.154-5.373
				l2.686-0.585c0.391,1.783,0.779,3.581,1.159,5.389L318.678,628.648L318.678,628.648z M546.064,625.251
				c-0.361-1.784-0.731-3.576-1.112-5.373l2.688-0.569c0.384,1.804,0.756,3.604,1.117,5.398L546.064,625.251L546.064,625.251z
				 M316.334,617.912c-0.404-1.805-0.814-3.588-1.221-5.357l2.68-0.619c0.407,1.775,0.82,3.568,1.224,5.374L316.334,617.912
				L316.334,617.912z M543.785,614.518c-0.396-1.777-0.807-3.561-1.221-5.351l2.676-0.623c0.42,1.795,0.831,3.588,1.229,5.372
				L543.785,614.518L543.785,614.518z M313.86,607.201c-0.425-1.797-0.854-3.58-1.282-5.342l2.672-0.649
				c0.431,1.768,0.859,3.555,1.284,5.36L313.86,607.201L313.86,607.201z M541.288,603.831c-0.437-1.768-0.879-3.542-1.334-5.321
				l2.662-0.685c0.459,1.793,0.906,3.573,1.341,5.35L541.288,603.831L541.288,603.831z M311.268,596.519
				c-0.446-1.801-0.897-3.578-1.344-5.327l2.665-0.678c0.452,1.755,0.895,3.538,1.348,5.344L311.268,596.519L311.268,596.519z
				 M538.56,593.204c-0.471-1.76-0.957-3.525-1.45-5.293l2.649-0.741c0.498,1.776,0.98,3.55,1.459,5.317L538.56,593.204
				L538.56,593.204z M308.555,585.868c-0.47-1.806-0.935-3.576-1.399-5.318l2.66-0.708c0.463,1.746,0.932,3.523,1.401,5.332
				L308.555,585.868L308.555,585.868z M535.6,582.64c-0.515-1.746-1.033-3.499-1.572-5.254l2.625-0.805
				c0.544,1.766,1.07,3.527,1.585,5.286L535.6,582.64L535.6,582.64z M305.731,575.241l-1.46-5.303l2.652-0.736l1.458,5.317
				L305.731,575.241L305.731,575.241z M532.389,572.15c-0.553-1.738-1.117-3.475-1.697-5.215l2.61-0.864
				c0.58,1.747,1.152,3.496,1.71,5.244L532.389,572.15L532.389,572.15z M302.787,564.641c-0.511-1.816-1.019-3.581-1.512-5.287
				l2.642-0.763c0.496,1.712,1.003,3.483,1.52,5.303L302.787,564.641L302.787,564.641z M528.931,561.748
				c-0.596-1.724-1.208-3.449-1.83-5.169l2.587-0.937c0.627,1.732,1.242,3.468,1.843,5.203L528.931,561.748L528.931,561.748z
				 M299.734,554.077c-0.543-1.839-1.068-3.6-1.569-5.271l2.63-0.796c0.504,1.677,1.032,3.442,1.577,5.289L299.734,554.077
				L299.734,554.077z M525.204,551.437c-0.645-1.712-1.3-3.414-1.965-5.116l2.558-1.008c0.676,1.718,1.336,3.436,1.979,5.153
				L525.204,551.437L525.204,551.437z M296.559,543.538c-0.588-1.908-1.136-3.664-1.637-5.253l2.624-0.828
				c0.5,1.596,1.051,3.357,1.643,5.273L296.559,543.538L296.559,543.538z M521.208,541.248c-0.686-1.687-1.385-3.369-2.097-5.049
				l2.527-1.07c0.72,1.689,1.423,3.383,2.117,5.074L521.208,541.248L521.208,541.248z M293.246,533.042
				c-1.1-3.397-1.729-5.234-1.735-5.239l2.604-0.894c0,0,0.635,1.854,1.746,5.283L293.246,533.042L293.246,533.042z
				 M342.757,532.346h-0.981v-2.749h0.981c1.501,0,3.004-0.01,4.507-0.025l0.026,2.751
				C345.782,532.338,344.271,532.346,342.757,532.346L342.757,532.346z M336.254,532.295c-1.841-0.029-3.68-0.072-5.515-0.128
				l0.081-2.747c1.822,0.053,3.649,0.095,5.478,0.126L336.254,532.295L336.254,532.295z M352.81,532.23l-0.057-2.751
				c1.823-0.039,3.656-0.094,5.483-0.159l0.096,2.751C356.49,532.137,354.65,532.192,352.81,532.23L352.81,532.23z M325.221,531.957
				c-1.843-0.084-3.686-0.183-5.517-0.299l0.172-2.741c1.816,0.111,3.64,0.211,5.467,0.294L325.221,531.957L325.221,531.957z
				 M363.846,531.847l-0.122-2.744c1.826-0.084,3.651-0.179,5.471-0.279l0.155,2.743
				C367.521,531.67,365.684,531.764,363.846,531.847L363.846,531.847z M314.194,531.268c-1.842-0.144-3.679-0.306-5.504-0.484
				l0.269-2.738c1.809,0.181,3.625,0.342,5.453,0.485L314.194,531.268L314.194,531.268z M374.847,531.232l-0.183-2.747
				c1.823-0.12,3.646-0.251,5.459-0.391l0.211,2.745C378.509,530.98,376.678,531.111,374.847,531.232L374.847,531.232z
				 M516.934,531.189c-0.733-1.664-1.481-3.325-2.244-4.982l2.497-1.149c0.769,1.67,1.521,3.345,2.267,5.021L516.934,531.189
				L516.934,531.189z M385.829,530.391l-0.233-2.741c1.83-0.151,3.65-0.32,5.467-0.492l0.259,2.738
				C389.498,530.067,387.666,530.234,385.829,530.391L385.829,530.391z M303.197,530.192c-1.843-0.219-3.672-0.451-5.489-0.71
				l0.385-2.722c1.795,0.254,3.606,0.486,5.423,0.696L303.197,530.192L303.197,530.192z M396.81,529.353l-0.284-2.735
				c1.826-0.188,3.648-0.386,5.459-0.59l0.309,2.735C400.474,528.966,398.647,529.161,396.81,529.353L396.81,529.353z
				 M407.77,528.12l-0.334-2.727c1.833-0.223,3.646-0.447,5.455-0.679l0.35,2.727C411.427,527.674,409.604,527.897,407.77,528.12
				L407.77,528.12z M418.705,526.716l-0.371-2.721c1.83-0.248,3.646-0.504,5.441-0.763l0.389,2.723
				C422.361,526.213,420.543,526.468,418.705,526.716L418.705,526.716z M429.617,525.15l-0.405-2.72
				c1.826-0.271,3.638-0.553,5.425-0.841l0.432,2.721C433.272,524.593,431.45,524.873,429.617,525.15L429.617,525.15z
				 M440.508,523.429l-0.448-2.713c1.833-0.304,3.636-0.608,5.416-0.915l0.47,2.706
				C444.158,522.817,442.349,523.125,440.508,523.429L440.508,523.429z M451.375,521.552l-0.484-2.706
				c1.832-0.332,3.635-0.663,5.404-0.989l0.504,2.701C455.023,520.892,453.215,521.22,451.375,521.552L451.375,521.552z
				 M512.363,521.259c-0.785-1.64-1.587-3.279-2.399-4.917l2.46-1.223c0.82,1.644,1.626,3.296,2.422,4.953L512.363,521.259
				L512.363,521.259z M462.217,519.535l-0.524-2.702c1.843-0.352,3.64-0.707,5.394-1.06l0.539,2.697
				C465.866,518.819,464.062,519.174,462.217,519.535L462.217,519.535z M473.028,517.366l-0.557-2.691
				c1.853-0.383,3.649-0.762,5.379-1.132l0.573,2.688C476.69,516.601,474.89,516.982,473.028,517.366L473.028,517.366z
				 M483.817,515.058l-0.593-2.685c1.884-0.417,3.675-0.819,5.36-1.205l0.614,2.681
				C487.508,514.234,485.707,514.644,483.817,515.058L483.817,515.058z M494.573,512.598l-0.634-2.675
				c1.997-0.473,3.782-0.905,5.345-1.291l0.658,2.667C498.371,511.687,496.577,512.123,494.573,512.598L494.573,512.598z
				 M507.481,511.466c-0.318-0.61-0.637-1.225-0.961-1.838c-0.328,0.089-0.735,0.196-1.216,0.321l-0.689-2.665l3.308-0.876
				l0.517,0.97c0.498,0.936,0.991,1.88,1.482,2.822L507.481,511.466L507.481,511.466z"/>
		</g>
		<g>
			<path fill="#FF0C10" d="M358.648,488.641c-1.385,14.504,19.234,26.723,46.051,27.288c26.814,0.557,49.668-10.739,51.05-25.247
				c1.389-14.51-19.226-26.724-46.04-27.287C382.9,462.831,360.033,474.131,358.648,488.641z"/>
			<path fill="#FF0C10" d="M432.21,503.623c0,0,21.384,4.048,23.735,21.863c2.362,17.82,5.801-0.197,4.939,9.137
				c0,0-4.15,6.551-17.533-7.508c-8.965-9.418-14.406-8.756-14.406-8.756s-21.811-0.469-10-11.049
				C418.945,507.311,423.507,502.008,432.21,503.623z"/>
			<path fill="#FF0C10" d="M400.896,513.209c-0.434,4.482,8.006,8.292,18.837,8.523c10.832,0.229,19.962-3.225,20.395-7.699
				c0.42-4.476-8.012-8.293-18.843-8.523C410.453,505.283,401.324,508.733,400.896,513.209z"/>
			<path fill="#FF0C10" d="M404.98,510.27c0,0-22.83,9.079-19.923,29.657c2.918,20.574-6.595,0.996-2.696,11.337
				c0,0,6.715,6.503,17.402-12.167c7.168-12.505,13.494-12.905,13.494-12.905s24.43-5.139,7.824-14.569
				C421.082,511.622,414.292,506.608,404.98,510.27z"/>
			<path fill="#F76D57" d="M424.875,521.346c0,0-11.029,0.455-18.958-13.206C405.917,508.14,406.98,523.721,424.875,521.346z"/>
			<path fill="#B5060D" d="M371.258,487.237c0,0,11.053,22.756,39.589,20.704L371.258,487.237z"/>
			<path fill="#B5060D" d="M431.211,520.29c0,0,11.983-2.921,6.812-12.037C438.023,508.253,453.261,514.931,431.211,520.29z"/>
		</g>
		<path fill="#C4927E" d="M294.47,483.831c0,0,137.479,60.034,207.572-9.045L294.47,483.831z"/>
		<path fill="#F0C0AC" d="M553.848,380.375C573.5,461.152,484.162,497.136,398.2,497.136c-85.967,0-186.52-41.087-155.655-116.761
			c39.24-96.197,69.688-141.26,155.655-141.26C484.162,239.115,538.15,315.852,553.848,380.375z"/>
		<path fill="#DC8687" d="M555.192,353.762c0,32.057-35.477,58.044-79.239,58.044c-43.762,0-79.232-25.987-79.232-58.044
			c0-32.059,35.471-58.046,79.232-58.046C519.716,295.716,555.192,321.703,555.192,353.762z"/>
		<path fill="#C4927E" d="M434.426,304.328c0,0-46.497,23.503-75.617,9.28C358.809,313.608,361.057,339.063,434.426,304.328z"/>
		<g>
			<path fill="#FFFFFF" d="M415.113,406.231c0,0-2.056,22.676,15.525,27.193c0,0,24.096,5.221,29.62-9.071
				c5.522-14.291,1.287-13.44,1.287-13.44S439.061,410.788,415.113,406.231z"/>
			<path fill="#4C3C32" d="M372.837,395.586c0,0-25.565,11.162-36.391,50.261c0,0-28.364,0.664-43.633,2.273
				c0,0,15.141-21.551,1.966-125.774C294.78,322.346,296.592,365.838,372.837,395.586z"/>
			<path fill="#FFFFFF" d="M338.493,378.282c0,0-10.16,24.892,8.127,36.06c0,0,25.395,14.224,36.57,0
				c11.171-14.217,6.096-14.727,6.096-14.727S361.349,393.518,338.493,378.282z"/>
			<g>
				<path fill="#936E5F" d="M387.078,468.828c-4.269,0-9.392-0.61-13.178-1.164l0.292-2.009c9.355,1.366,18.209,1.481,18.965,0.245
					c-0.017-0.172-0.459-2.258-14.445-8.469c-35.86-15.942-84.262-8.134-84.75-8.057l-1.539,0.258l0.392-1.513
					c13.998-53.995,0.127-124.61-0.014-125.321l1.98-0.454c21.899,83.798,160.076,87.392,161.55,87.431l13.46,2.029
					c-0.376-0.011-43.026-0.042-82.566-11.556c-46.661-13.591-77.638-36.225-90.444-65.879c3.281,22.378,8.523,71.97-1.623,112.775
					c8.588-1.189,51.578-6.147,84.382,8.426c14.577,6.479,16.092,9.075,15.559,10.911
					C394.589,468.248,391.241,468.823,387.078,468.828L387.078,468.828z"/>
			</g>
		</g>
		<path fill="#C4927E" d="M398.25,281.48c0-5.816,4.773-10.535,10.655-10.535s10.655,4.719,10.655,10.535
			c0,5.822-4.773,10.541-10.655,10.541S398.25,287.302,398.25,281.48z"/>
		<ellipse fill="#C4927E" cx="364.357" cy="283.346" rx="8.773" ry="8.677"/>
		<g>
			<path fill="#C4927E" d="M343.005,301.859c-2.92,0-6.102-0.271-9.553-0.877l0.263-1.498c28.055,4.919,37.187-13.114,37.273-13.296
				l1.374,0.665C372.279,287.025,364.778,301.859,343.005,301.859L343.005,301.859z"/>
		</g>
		<path d="M372.553,284.585c0,3.797-3.077,6.872-6.871,6.872c-3.796,0-6.873-3.074-6.873-6.872c0-3.792,3.077-6.871,6.873-6.871
			C369.476,277.714,372.553,280.794,372.553,284.585z"/>
		<g>
			<path fill="#C4927E" d="M420.186,295.622c-15.391,0-19.42-7.312-19.642-7.735l1.351-0.705c0.069,0.131,7.363,12.999,40.251,3.179
				l0.433,1.461C433.271,294.599,425.931,295.622,420.186,295.622L420.186,295.622z"/>
		</g>
		<path d="M416.388,282.991c0,4.609-3.737,8.347-8.343,8.347c-4.609,0-8.346-3.738-8.346-8.347c0-4.608,3.736-8.345,8.346-8.345
			C412.65,274.646,416.388,278.382,416.388,282.991z"/>
		<circle fill="#FFFFFF" cx="411.051" cy="281.798" r="4.011"/>
		<path fill="#FFFFFF" d="M371.459,283.604c0,1.824-1.48,3.304-3.302,3.304c-1.824,0-3.303-1.48-3.303-3.304
			c0-1.819,1.479-3.301,3.303-3.301C369.979,280.303,371.459,281.785,371.459,283.604z"/>
		<path fill="#F0C0AC" d="M340.524,263.492c0,0-42.666-91.423-164.563-91.423C175.961,172.069,129.231,330.54,340.524,263.492z"/>
		<path fill="#C4927E" d="M310.726,255.594c0,0-52.823-53.05-125.959-69.303C184.767,186.292,145.485,285.617,310.726,255.594z"/>
		<path fill="#F4989D" d="M436.459,353.396c0-10.382,5.855-18.796,14.337-18.796c8.479,0,17.383,8.414,17.383,18.796
			c0,10.377-8.904,18.792-17.383,18.792C442.314,372.188,436.459,363.772,436.459,353.396z"/>
		<path fill="#8E595B" d="M465.129,353.396c0,9.254-6.417,16.76-14.333,16.76c-7.92,0-14.337-7.506-14.337-16.76
			c0-9.257,6.417-16.765,14.337-16.765C458.712,336.631,465.129,344.139,465.129,353.396z"/>
		<path fill="#F4989D" d="M530.077,349.299c0-13.764-11.053-24.923-24.687-24.923c-13.632,0-24.683,11.16-24.683,24.923
			c0,13.763,11.051,24.92,24.683,24.92C519.024,374.219,530.077,363.062,530.077,349.299z"/>
		<path fill="#8E595B" d="M523.372,349.299c0,12.643-9.546,22.889-21.33,22.889c-11.782,0-21.334-10.246-21.334-22.889
			c0-12.642,9.552-22.887,21.334-22.887C513.826,326.412,523.372,336.657,523.372,349.299z"/>
		<g>
			<path fill="#C4927E" d="M216.73,553.316c0,0,17.517-26.149,50.792-38.983c0,0,11.438-32.945-9.247-13.176L216.73,553.316z"/>
			<g>
				<g>
					<path fill="#E4AB92" d="M281.469,772.227l-4.926,0.638c12.682,10.281,26.69,20.55,42.095,30.793l1.99-3.001
						C306.39,791.196,293.351,781.715,281.469,772.227z"/>
					<path fill="#F0C0AC" d="M265.075,472.299c0,0-305.283,161.117,40.182,359.562l14.381-29.702
						c0,0-256.222-140.869-44.591-314.266L265.075,472.299z"/>
					<g>
						<path fill="#E4AB92" d="M305.058,834.359c-4.15-2.591-101.644-64.165-125.449-101.294l3.891,2.915
							c26.776,35.179,120.806,92.405,121.811,93.044l-0.751,4.317L305.058,834.359z"/>
					</g>
					<path d="M304.484,833.903c0,0,25.539,21.312,52.488,10.902c0,0,3.145-3.563-10.924-13.462c0,0,22.71-1.397,31.598-10.691
						c0,0,2.939-7.594-57.048-20.043C320.598,800.609,307.14,811.531,304.484,833.903z"/>
					<path fill="#999999" d="M334.735,828.757c0,0,19.371,2.603,27.208-3.315c7.829-5.927-18.756-11.447-18.756-11.447
						S332.919,808.494,334.735,828.757z"/>
				</g>
				<g>
					<path fill="#C4927E" d="M318.638,803.657c-88.292-58.723-131.975-118.209-129.825-176.81
						c2.845-77.641,76.922-126.853,77.772-127.336l1.766,3.135c-0.837,0.473-73.191,48.726-75.947,124.343
						c-2.087,57.272,41.056,115.698,128.223,173.667L318.638,803.657L318.638,803.657z"/>
				</g>
			</g>
		</g>
		<path fill="#F0C0AC" d="M374.731,241.244c0,0,37.021-79.333,142.797-79.333C517.528,161.911,558.076,299.419,374.731,241.244z"/>
		<path fill="#C4927E" d="M375.183,240.336c0,0,31.857-0.948,59.243,3.583C434.426,243.918,403.971,232.983,375.183,240.336z"/>
		<path fill="#C4927E" d="M305.243,307.995c0,0-24.648-1.636-19.312,26.605C285.932,334.6,271.471,293.774,305.243,307.995z"/>
		<path d="M644.101,398.458c0,0,15.236-29.568-0.79-53.604c0,0-4.163-2.296-10.76,13.596c0,0-6.31-21.863-17.315-28.513
			c0,0-8.053-1.217-7.14,60.044C608.096,389.981,621.685,400.735,644.101,398.458z"/>
		<path fill="#999999" d="M632.485,370.051c0,0-1.675-19.476-9.157-25.833c-7.486-6.351-7.089,20.799-7.089,20.799
			S613.108,376.233,632.485,370.051z"/>
		
			<radialGradient id="SVGID_15_" cx="1175.0488" cy="293.5859" r="90.0807" gradientTransform="matrix(-1 0 0 1 1774.1875 0)" gradientUnits="userSpaceOnUse">
			<stop  offset="0.2333" style="stop-color:#F2F2F2"/>
			<stop  offset="1" style="stop-color:#CCCCCC"/>
		</radialGradient>
		<path fill="url(#SVGID_15_)" d="M538.665,195.913c0,0,16.766,29.624,25.966,44.804c4.494,3.904,3.094-1.688,3.091-1.705
			l-17.479-46.737l24.144,43.575c4.709,4.915,3.173-1.485,3.171-1.503l-17.48-46.737l24.143,43.577
			c4.087,4.823,3.563,0.522,3.283-1.012c-5.903-16.656-18.365-48.713-18.365-48.713c35.972,52.299,33.89,71.98,27.892,79.366
			l0.188-0.065c0,0-3.799,3.088-0.031,10.52c0.312,0.562,0.632,1.127,0.954,1.701c0.003,0.012,0.01,0.023,0.02,0.035l-0.005-0.004
			c13.847,24.871,33.913,64.304,46.736,91.349c20.256,42.691,14.805,38.316,11.399,39.933c-3.396,1.611-3.457,8.599-23.713-34.09
			c-13.172-27.771-31.639-69.711-42.005-96.09c-2.505-5.467-5.738-6.33-7.226-6.418c-0.256,0.019-0.521,0.029-0.783,0.029
			c-0.026,0.006-0.042,0.008-0.042,0.008l0.011-0.008C573.029,267.732,556.444,256.954,538.665,195.913z"/>
	</g>
	<path clip-path="url(#SVGID_7_)" fill="#CC171E" d="M301.057,387.035c0,0,1.189,34.939-5.901,60.111c0,0,13.41-2.328,32.41-1.828
		C327.566,445.318,339.548,388.752,301.057,387.035z"/>
	<path clip-path="url(#SVGID_7_)" fill="#991117" d="M314.502,390.721c0,0,8.564,9.098,2.564,29.098c0,0,5.537-9.656,4.269-23.078
		C321.335,396.74,318.271,392.623,314.502,390.721z"/>
</g>
<g>
	<path fill="#C8B570" d="M728.779,527.304c9.275-6.704,49.918-38.216,86.301-99.642l-44.61-7.305l-2.599-56.14
		c-11.239,16.191-42.945,58.618-87.234,91.088L728.779,527.304z"/>
	<path fill="#A1905C" d="M680.281,455.306c10.512-7.709,20.307-15.979,29.299-24.325l0,0c0,0,59.977,57.277,41.59,77.137
		c-10.888,10.288-19.163,16.597-22.748,19.187L680.281,455.306z"/>
	<path d="M773.047,417.5l-2.863-61.905c0,0-36.293,57.83-93.594,98.85l51.539,77.078c0,0,49.057-32.253,91.716-106.358
		L773.047,417.5z M728.779,527.304l-48.143-71.998c44.289-32.47,75.995-74.896,87.234-91.088l2.599,56.14l44.61,7.305
		C778.697,489.088,738.055,520.6,728.779,527.304z"/>
	<path d="M744.621,514.445c0,0-12.604,12.369-6.302,0l-12.704,17.077L744.621,514.445z"/>
	<path fill="#C8B570" d="M116.954,527.304c-9.276-6.704-49.917-38.216-86.301-99.642l44.612-7.305l2.598-56.14
		c11.238,16.191,42.947,58.618,87.233,91.088L116.954,527.304z"/>
	<path fill="#A1905C" d="M165.096,455.306c-10.513-7.709-20.308-15.979-29.298-24.325l0,0c0,0-59.979,57.277-41.591,77.137
		c10.89,10.288,19.164,16.597,22.747,19.187L165.096,455.306z"/>
	<path d="M75.55,355.595L72.685,417.5l-46.796,7.664c42.658,74.105,91.714,106.358,91.714,106.358l51.542-77.078
		C111.842,413.425,75.55,355.595,75.55,355.595z M116.954,527.304c-9.276-6.704-49.917-38.216-86.301-99.642l44.612-7.305
		l2.598-56.14c11.238,16.191,42.947,58.618,87.233,91.088L116.954,527.304z"/>
	<path fill="#C8B570" d="M417.496,625.281c-36.909-1.679-73.253-6.056-109.303-16.487c-36.996-10.704-72.935-26.497-107.069-46.671
		c-17.47-10.326-34.47-21.795-50.926-34.287c-8.023-6.092-15.916-12.426-23.674-18.989c-3.218-2.724-7.745-8.527-11.909-8.527
		c-2.994,0-5.07,3.328-8.048,3.328c-5.787,0.56-5.54-7.195-2.676-11.708c5.203-8.987,11.164-17.497,16.857-26.043
		c8.842-13.271,17.857-26.622,28.052-38.452c3.053-3.544,6.883-8.653,11.217-9.67c9.05-2.127,18.034,8.658,24.777,14.188
		c17.301,14.187,35.153,27.421,53.602,39.353c33.217,21.479,68.458,38.712,105.219,49.174
		c69.937,19.901,141.833,12.064,208.752-18.729c37.622-17.312,73.072-40.939,106.387-68.032
		c6.812-5.536,14.238-14.346,22.672-15.981c6.195-1.203,10.522,4.045,14.639,8.726c10.041,11.425,18.871,24.453,27.523,37.37
		c6.064,9.051,11.992,18.233,17.844,27.484c2.564,4.439,4.174,12.242-1.807,12.317c-2.225,0.026-3.514-1.557-5.486-2.312
		c-3.547-2.286-6.287,0.056-9.162,2.553c-8.348,7.25-16.855,14.232-25.517,20.929c-32.493,25.127-67.161,46.236-103.384,62.46
		C538.803,612.923,478.503,625.281,417.496,625.281z"/>
	<path fill="#A1905C" d="M426.432,540.888c-1.238,0-2.479-0.017-3.721-0.031c-1.25,0.015-2.5,0.031-3.746,0.031
		c-73.763,0-138.687-30.223-180.162-55.575c-46.102-28.179-74.865-57.131-75.149-57.42c-2.648-2.389-5.342-3.608-7.994-3.608
		c-0.201,0-0.402,0.008-0.603,0.021c-0.678,0.051-1.364,0.184-2.04,0.399c-0.125,0.094-0.341,0.161-0.563,0.161
		c-0.678,0-1.283-0.652-1.35-1.455c-0.066-0.789,0.402-1.721,1.915-1.975l0.431-0.076c0.441-0.079,0.894-0.161,1.365-0.195
		c0.291-0.022,0.582-0.033,0.875-0.033c3.438,0,6.851,1.509,10.144,4.486c0.299,0.301,29.199,29.252,74.643,57.023
		c41.111,25.126,105.455,55.079,178.525,55.078c0.611,0,1.84-0.012,1.84-0.012l0.329-0.015l2.384,0.003l1.002-0.017v0.032
		c0.594,0.004,1.184,0.007,1.781,0.007c73.128-0.005,137.478-29.954,178.584-55.077c45.918-28.063,74.295-56.676,74.576-56.961
		c3.342-3.021,6.777-4.548,10.225-4.548c0.285,0,0.571,0.011,0.859,0.032c0.475,0.034,0.951,0.099,1.414,0.189l0.139,0.029
		l2.905,4.544l-1.089-0.564c-1.182-0.614-2.396-0.969-3.613-1.058c-0.202-0.014-0.406-0.022-0.61-0.022
		c-2.646,0-5.356,1.235-8.051,3.673c-0.259,0.267-29.308,29.377-75.083,57.356C565.123,510.664,500.201,540.885,426.432,540.888
		L426.432,540.888z"/>
	<g>
		<path fill="#F5DFC9" d="M424.078,626.252c-180.66-0.103-305.04-122.229-305.383-122.491l0,0l-0.227-0.222l-0.19-0.257
			c-0.895-1.117-1.562-1.329-3.038-1.399l0,0c-2.525-0.083-6.321,1.856-6.968,2.312l0,0c-0.096,0.06-0.105,0.066-0.105,0.066l0,0
			l-4.354-6.712c0.128-0.081,1.455-0.939,3.484-1.824l0,0c2.038-0.871,4.768-1.824,7.942-1.841l0,0
			c3.031-0.069,6.804,1.158,9.27,4.373l0,0c0.216,0.207,0.596,0.569,1.15,1.089l0,0c0.927,0.867,2.318,2.146,4.159,3.783l0,0
			c3.683,3.27,9.158,7.961,16.292,13.598l0,0c14.27,11.272,35.171,26.326,61.612,41.375l0,0
			c52.89,30.108,127.885,60.155,216.354,60.151l0,0c88.872-0.024,191.476-30.214,299.684-121.646l0,0
			c0.903-0.989,3.242-2.754,6.927-2.706l0,0c2.925,0.004,6.451,0.977,10.866,3.499l0,0l-3.971,6.942
			c-3.595-2.057-5.814-2.446-6.896-2.441l0,0c-0.592,0.008-0.879,0.095-1.012,0.152l0,0l-0.048,0.067l-0.385,0.327
			C619.757,595.14,514.958,626.253,424.182,626.252l0,0C424.148,626.252,424.111,626.252,424.078,626.252L424.078,626.252z"/>
	</g>
	<g>
		<path fill="#A1905C" d="M738.72,511.759l-1.444-1.662c36.264-31.546,60.606-69.974,65.289-77.648l-38.33-6.54l-1.83-43.132
			c-30.193,40.706-53.427,57.228-53.662,57.394l-1.265-1.801c0.237-0.167,24.155-17.193,55.007-59.41l1.854-2.536l2.019,47.616
			l39.729,6.78l-0.796,1.369C805.032,432.629,779.272,476.477,738.72,511.759L738.72,511.759z"/>
	</g>
	<g>
		<path fill="#A1905C" d="M422.535,612.524c-90.921-1.091-166.932-34.521-214.687-62.375
			c-51.791-30.207-82.413-60.521-82.716-60.822c-1.812-1.458-4.49-2.222-7.903-2.222c-5.657,0-11.388,2.141-11.445,2.161l0.551-3.06
			c0.629-0.241,4.809-1.826,10.811-1.826c4.096,0,7.394,0.985,9.799,2.926c1.333,1.309,31.759,31.038,82.306,60.515
			c47.465,27.681,123.003,60.902,213.315,61.988l0.723,0.007l-0.033,2.719L422.535,612.524z"/>
		<path fill="#A1905C" d="M421.854,609.816l0.723-0.007c90.329-1.086,165.878-34.32,213.349-62.008
			c51.09-29.798,81.867-60.101,82.166-60.4c2.404-1.946,5.684-2.906,9.806-2.906c4.62,0,9.22,1.213,11.673,1.983
			c1.065,0.333,0.523,3.036-0.001,2.86c-1.938-0.642-6.935-2.125-11.765-2.125c-3.428,0-6.084,0.742-7.897,2.207
			c-0.228,0.237-31.051,30.655-82.612,60.729c-47.755,27.854-123.766,61.284-214.685,62.375l-0.724,0.011L421.854,609.816z"/>
	</g>
	<g>
		<path fill="#A1905C" d="M106.894,511.759l1.444-1.662c-36.263-31.546-60.606-69.974-65.289-77.648l38.33-6.54l1.83-43.132
			c30.193,40.706,53.428,57.228,53.664,57.394l1.263-1.801c-0.239-0.167-24.156-17.193-55.005-59.41l-1.854-2.536l-2.02,47.616
			l-39.729,6.78l0.798,1.369C40.582,432.629,66.34,476.477,106.894,511.759L106.894,511.759z"/>
	</g>
	<g>
		<path d="M417.496,627l-0.054-0.001c-42.448-1.93-77.27-7.183-109.585-16.535c-36.635-10.598-72.758-26.344-107.367-46.799
			c-17.316-10.235-34.495-21.801-51.058-34.377c-7.97-6.051-15.956-12.456-23.735-19.037c-0.84-0.708-1.737-1.592-2.688-2.53
			c-2.573-2.532-5.773-5.683-8.395-5.683c-1.131,0-2.158,0.677-3.347,1.456c-1.321,0.869-2.815,1.852-4.642,1.873
			c-0.219,0.019-0.431,0.027-0.634,0.027c-2.264,0-3.997-1.177-4.882-3.318c-1.41-3.417-0.243-8.21,1.642-11.176
			c4.085-7.062,8.725-13.953,13.213-20.617c1.227-1.821,2.452-3.641,3.665-5.46c9.512-14.275,18.197-27.034,28.174-38.614
			c0.365-0.425,0.741-0.872,1.129-1.331c2.929-3.472,6.574-7.797,10.809-8.791c0.863-0.203,1.756-0.306,2.655-0.306
			c6.926,0,13.345,5.869,19.009,11.045c1.487,1.363,2.891,2.645,4.197,3.716c17.91,14.687,35.9,27.894,53.474,39.26
			c35.13,22.718,70.413,39.208,104.87,49.013c25.403,7.23,51.604,10.896,77.873,10.896c43.666,0,87.416-9.945,130.035-29.555
			c35.125-16.166,69.832-38.362,106.096-67.854c1.678-1.361,3.381-2.917,5.186-4.562c5.338-4.874,11.388-10.396,18.063-11.69
			c0.671-0.131,1.345-0.196,2.004-0.196c5.632,0,9.761,4.708,13.403,8.863l0.443,0.507c9.741,11.085,18.286,23.561,27.654,37.542
			c5.52,8.234,11.363,17.236,17.869,27.521c2.059,3.557,3.45,8.593,2,11.959c-0.603,1.401-1.951,3.08-4.934,3.115
			c-1.799,0-3.072-0.776-4.191-1.464c-0.586-0.356-1.137-0.696-1.742-0.928l-0.242-0.122c-0.758-0.489-1.479-0.727-2.199-0.727
			c-1.812,0-3.578,1.532-5.448,3.157c-8.371,7.27-16.979,14.329-25.577,20.98c-33.027,25.54-67.904,46.608-103.662,62.625
			C540.102,614.176,479.85,627,417.496,627L417.496,627z M114.615,498.6c3.646,0,7.134,3.436,10.211,6.463
			c0.91,0.895,1.768,1.74,2.524,2.379c7.739,6.547,15.684,12.921,23.614,18.942c16.478,12.51,33.567,24.015,50.793,34.196
			c34.418,20.345,70.343,36.003,106.771,46.544c32.119,9.293,66.756,14.517,108.995,16.438
			c62.002-0.006,121.903-12.754,178.05-37.901c35.566-15.928,70.257-36.889,103.112-62.294c8.559-6.618,17.121-13.642,25.45-20.875
			c2.157-1.875,4.386-3.812,7.128-3.812c1.15,0,2.305,0.357,3.438,1.063c0.777,0.312,1.45,0.724,2.05,1.092
			c0.99,0.605,1.775,1.088,2.817,1.088c1.927-0.023,2.325-0.952,2.458-1.259c0.732-1.7-0.046-5.372-1.774-8.36
			c-6.451-10.2-12.28-19.177-17.78-27.386c-9.301-13.883-17.783-26.265-27.396-37.2l-0.444-0.51c-3.413-3.894-6.942-7.92-11.43-7.92
			c-0.507,0-1.028,0.052-1.548,0.152c-5.965,1.158-11.465,6.178-16.785,11.033c-1.837,1.677-3.571,3.26-5.309,4.675
			c-36.451,29.64-71.346,51.954-106.682,68.215c-42.949,19.765-87.044,29.785-131.06,29.785c-26.492,0-52.915-3.698-78.535-10.988
			c-34.699-9.876-70.218-26.474-105.568-49.334c-17.661-11.421-35.739-24.692-53.73-39.446c-1.367-1.12-2.8-2.431-4.317-3.818
			c-5.303-4.849-11.312-10.344-17.271-10.344c-0.714,0-1.421,0.081-2.104,0.243c-3.386,0.795-6.69,4.713-9.346,7.861
			c-0.395,0.469-0.778,0.923-1.15,1.356c-9.856,11.439-18.48,24.109-27.929,38.291c-1.216,1.825-2.444,3.648-3.675,5.476
			c-4.455,6.612-9.062,13.455-13.125,20.475c-1.558,2.458-2.152,5.781-1.389,7.629c0.144,0.348,0.581,1.407,2.313,1.407
			c0.146,0,0.302-0.008,0.461-0.022l0.114-0.007c1.119,0,2.142-0.671,3.325-1.447C111.231,499.599,112.75,498.6,114.615,498.6
			L114.615,498.6z"/>
	</g>
	<path d="M117.603,531.522c2.006,2.939,5.319,2.685,7.206-0.364l9.702-15.678c0,0-16.302-15.291-19.167-15.362
		c0,0-4.93,1.13-7.14,3.205c0,0-2.861,1.163-7.093-1.247C101.11,502.076,109.213,519.229,117.603,531.522z"/>
	<path d="M101.11,514.445c0,0,12.605,12.369,6.303,0l12.706,17.077L101.11,514.445z"/>
	<path d="M728.129,531.522c-2.004,2.939-5.318,2.685-7.203-0.364l-9.703-15.678c0,0,16.303-15.291,19.166-15.362
		c0,0,4.93,1.13,7.143,3.205c0,0,2.861,1.163,7.09-1.247C744.621,502.076,736.52,519.229,728.129,531.522z"/>
	<polygon fill="#F5DFC9" points="94.402,437.759 105.03,431.104 101.985,443.268 111.598,451.319 99.089,452.182 94.402,463.812 
		89.715,452.182 77.205,451.319 86.819,443.268 83.773,431.104 	"/>
	<polygon fill="#F5DFC9" points="751.934,437.759 741.305,431.104 744.349,443.268 734.736,451.319 747.246,452.182 
		751.934,463.812 756.621,452.182 769.128,451.319 759.518,443.268 762.561,431.104 	"/>
</g>
<path fill="none" d="M136.125,443.559"/>
<path fill="none" d="M806.085,280.24c0-154.914-185.893-285.52-381.324-285.52C229.333-5.28,7.954,110.086,7.954,265
	c0,154.914,213.608,340.553,409.037,340.553C612.422,605.554,806.085,435.153,806.085,280.24z"/>
<text transform="matrix(0.951 0.3091 -0.3091 0.951 280.853 579.0146)"><tspan x="0" y="0" font-family="'MyriadPro-Bold'" font-size="86">P</tspan><tspan x="53.608" y="-0.801" font-family="'MyriadPro-Bold'" font-size="86" rotate="-5.69">i</tspan><tspan x="80.121" y="-3.384" font-family="'MyriadPro-Bold'" font-size="86" rotate="-10.456">t</tspan><tspan x="114.019" y="-10.042" font-family="'MyriadPro-Bold'" font-size="86" rotate="-15.118"> </tspan><tspan x="135.741" y="-14.896" font-family="'MyriadPro-Bold'" font-size="86" rotate="-22.517">H</tspan><tspan x="194.09" y="-40.639" font-family="'MyriadPro-Bold'" font-size="86" rotate="-29.646">i</tspan><tspan x="217.039" y="-53.66" font-family="'MyriadPro-Bold'" font-size="86" rotate="-34.033">t</tspan><tspan x="245.93" y="-73.215" font-family="'MyriadPro-Bold'" font-size="86" rotate="-39.184">s</tspan></text>
</svg>
